ply
format ascii 1.0
comment VCGLIB generated
element vertex 242
property float x
property float y
property float z
element face 480
property list uchar int vertex_indices
property list uchar float texcoord
property uchar red
property uchar green
property uchar blue
property uchar alpha
end_header
-0 0.020812 -0.020812 
-0 0.011263 -0.027192 
-0 -0.011263 -0.027192 
0.00431 0.027192 -0.010406 
0.007964 0.020812 -0.019228 
0.010406 0.011263 -0.025122 
0.011263 0 -0.027192 
0.010406 -0.011263 -0.025122 
0.007964 0.027192 -0.007964 
0.014716 0.020812 -0.014716 
0.019228 0.011263 -0.019228 
0.020812 0 -0.020812 
0.019228 -0.011263 -0.019228 
0.010406 0.027192 -0.00431 
0.019228 0.020812 -0.007964 
0.025122 0.011263 -0.010406 
0.027192 0 -0.011263 
0.025122 -0.011263 -0.010406 
0.011263 0.027192 -0 
0.020812 0.020812 -0 
0.027192 0.011263 0 
0.029433 0 0 
0.027192 -0.011263 0 
0.010406 0.027192 0.00431 
0.019228 0.020812 0.007964 
0.025122 0.011263 0.010406 
0.027192 0 0.011263 
0.025122 -0.011263 0.010406 
0.007964 0.027192 0.007964 
0.014716 0.020812 0.014716 
0.019228 0.011263 0.019228 
0.020812 0 0.020812 
0.019228 -0.011263 0.019228 
0.00431 0.027192 0.010406 
0.007964 0.020812 0.019228 
0.010406 0.011263 0.025122 
0.011263 0 0.027192 
0.010406 -0.011263 0.025122 
-0 0.027192 0.011263 
-0 0.020812 0.020812 
-0 0.011263 0.027192 
-0 0 0.029433 
-0 -0.011263 0.027192 
-0.00431 0.027192 0.010406 
-0.007964 0.020812 0.019228 
-0.010406 0.011263 0.025122 
-0.011263 0 0.027192 
-0.010406 -0.011263 0.025122 
-0.007964 0.027192 0.007964 
-0.014716 0.020812 0.014716 
-0.019228 0.011263 0.019228 
-0.020812 0 0.020812 
-0.019228 -0.011263 0.019228 
-0.010406 0.027192 0.00431 
-0.019228 0.020812 0.007964 
-0.025122 0.011263 0.010406 
-0.027192 0 0.011263 
-0.025122 -0.011263 0.010406 
-0.011263 0.027192 -0 
-0.020812 0.020812 -0 
-0.027192 0.011263 -0 
-0.029433 0 -0 
-0.027192 -0.011263 -0 
-0.010406 0.027192 -0.00431 
-0.019228 0.020812 -0.007964 
-0.025122 0.011263 -0.010406 
-0.027192 0 -0.011263 
-0.025122 -0.011263 -0.010406 
-0.007964 0.027192 -0.007964 
-0.014716 0.020812 -0.014716 
-0.019228 0.011263 -0.019228 
-0.020812 0 -0.020812 
-0.019228 -0.011263 -0.019228 
-0.00431 0.027192 -0.010406 
-0.007964 0.020812 -0.019228 
-0.010406 0.011263 -0.025122 
-0.011263 0 -0.027192 
-0.010406 -0.011263 -0.025122 
-0 0.029433 0 
-0 0.027192 -0.011263 
0 0 -0.029433 
0.009521 -0.016229 -0.022987 
0.017593 -0.016229 -0.017593 
0.022987 -0.016229 -0.009521 
0.024881 -0.016229 0 
0.022987 -0.016229 0.009521 
0.017593 -0.016229 0.017593 
0.009521 -0.016229 0.022987 
-0 -0.016229 0.024881 
-0.009521 -0.016229 0.022987 
-0.017593 -0.016229 0.017593 
-0.022987 -0.016229 0.009521 
-0.024881 -0.016229 -0 
-0.022987 -0.016229 -0.009521 
-0.017593 -0.016229 -0.017593 
-0.009521 -0.016229 -0.022987 
0 -0.016229 -0.024881 
0.007538 -0.025079 -0.0182 
0.013929 -0.025079 -0.013929 
0.0182 -0.025079 -0.007538 
0.019699 -0.025079 -0 
0.0182 -0.025079 0.007538 
0.013929 -0.025079 0.013929 
0.007538 -0.025079 0.0182 
-0 -0.025079 0.019699 
-0.007539 -0.025079 0.0182 
-0.013929 -0.025079 0.013929 
-0.0182 -0.025079 0.007538 
-0.019699 -0.025079 -0 
-0.0182 -0.025079 -0.007539 
-0.013929 -0.025079 -0.013929 
-0.007538 -0.025079 -0.0182 
0 -0.025079 -0.019699 
0.006645 -0.033493 -0.016043 
0.012278 -0.033493 -0.012278 
0.016043 -0.033493 -0.006645 
0.017364 -0.033493 -0 
0.016043 -0.033493 0.006645 
0.012278 -0.033493 0.012278 
0.006645 -0.033493 0.016043 
-0 -0.033493 0.017364 
-0.006645 -0.033493 0.016043 
-0.012278 -0.033493 0.012278 
-0.016043 -0.033493 0.006645 
-0.017364 -0.033493 -0 
-0.016043 -0.033493 -0.006645 
-0.012278 -0.033493 -0.012278 
-0.006645 -0.033493 -0.016043 
-0 -0.033493 -0.017364 
0.005066 -0.049788 -0.012231 
0.009361 -0.049788 -0.009361 
0.012231 -0.049788 -0.005066 
0.013239 -0.049788 -0 
0.012231 -0.049788 0.005066 
0.009361 -0.049788 0.009361 
0.005066 -0.049788 0.012231 
-0 -0.049788 0.013239 
-0.005066 -0.049788 0.012231 
-0.009361 -0.049788 0.009361 
-0.012231 -0.049788 0.005066 
-0.013239 -0.049788 -0 
-0.012231 -0.049788 -0.005066 
-0.009361 -0.049788 -0.009361 
-0.005066 -0.049788 -0.012231 
0 -0.049788 -0.013239 
0.003282 -0.071182 -0.007923 
0.006064 -0.071182 -0.006064 
0.007923 -0.071182 -0.003282 
0.008576 -0.071182 -0 
0.007923 -0.071182 0.003282 
0.006064 -0.071182 0.006064 
0.003282 -0.071182 0.007923 
-0 -0.071182 0.008576 
-0.003282 -0.071182 0.007923 
-0.006064 -0.071182 0.006064 
-0.007923 -0.071182 0.003282 
-0.008576 -0.071182 -0 
-0.007923 -0.071182 -0.003282 
-0.006064 -0.071182 -0.006064 
-0.003282 -0.071182 -0.007923 
-0 -0.071182 -0.008576 
0.00203 -0.073886 -0.004901 
0.003751 -0.073886 -0.003751 
0.004901 -0.073886 -0.00203 
0.005305 -0.073886 -0 
0.004901 -0.073886 0.00203 
0.003751 -0.073886 0.003751 
0.00203 -0.073886 0.004901 
-0 -0.073886 0.005305 
-0.00203 -0.073886 0.004901 
-0.003751 -0.073886 0.003751 
-0.004901 -0.073886 0.00203 
-0.005305 -0.073886 -0 
-0.004901 -0.073886 -0.00203 
-0.003751 -0.073886 -0.003751 
-0.00203 -0.073886 -0.004901 
0 -0.073886 -0.005305 
-0 -0.075031 -0 
0.004566 -0.069236 -0.011024 
0.005066 -0.066989 -0.012231 
0.008438 -0.069236 -0.008438 
0.009361 -0.066989 -0.009361 
0.011024 -0.069236 -0.004566 
0.012231 -0.066989 -0.005066 
0.011933 -0.069236 -0 
0.013239 -0.066989 -0 
0.011024 -0.069236 0.004566 
0.012231 -0.066989 0.005066 
0.008438 -0.069236 0.008438 
0.009361 -0.066989 0.009361 
0.004566 -0.069236 0.011024 
0.005066 -0.066989 0.012231 
-0 -0.069236 0.011933 
-0 -0.066989 0.013239 
-0.004566 -0.069236 0.011024 
-0.005066 -0.066989 0.012231 
-0.008438 -0.069236 0.008438 
-0.009361 -0.066989 0.009361 
-0.011024 -0.069236 0.004566 
-0.012231 -0.066989 0.005066 
-0.011933 -0.069236 -0 
-0.013239 -0.066989 -0 
-0.011024 -0.069236 -0.004566 
-0.012231 -0.066989 -0.005066 
-0.008438 -0.069236 -0.008438 
-0.009361 -0.066989 -0.009361 
-0.004566 -0.069236 -0.011024 
-0.005066 -0.066989 -0.012231 
0 -0.066989 -0.013239 
0 -0.069236 -0.011933 
0.005886 -0.047127 -0.01421 
0.006407 -0.043973 -0.015467 
0.010876 -0.047127 -0.010876 
0.011838 -0.043973 -0.011838 
0.01421 -0.047127 -0.005886 
0.015467 -0.043973 -0.006407 
0.015381 -0.047127 -0 
0.016742 -0.043973 -0 
0.01421 -0.047127 0.005886 
0.015467 -0.043973 0.006407 
0.010876 -0.047127 0.010876 
0.011838 -0.043973 0.011838 
0.005886 -0.047127 0.01421 
0.006407 -0.043973 0.015467 
-0 -0.047127 0.015381 
-0 -0.043973 0.016742 
-0.005886 -0.047127 0.01421 
-0.006407 -0.043973 0.015467 
-0.010876 -0.047127 0.010876 
-0.011838 -0.043973 0.011838 
-0.01421 -0.047127 0.005886 
-0.015467 -0.043973 0.006407 
-0.015381 -0.047127 -0 
-0.016742 -0.043973 -0 
-0.01421 -0.047127 -0.005886 
-0.015467 -0.043973 -0.006407 
-0.010876 -0.047127 -0.010876 
-0.011838 -0.043973 -0.011838 
-0.005886 -0.047127 -0.01421 
-0.006407 -0.043973 -0.015467 
-0 -0.043973 -0.016742 
0 -0.047127 -0.015381 
3 96 2 7 6 0.615647 0.509206 0.583377 0.509437 0.588864 0.449049 192 192 192 255 
3 96 7 81 6 0.615647 0.509206 0.588864 0.449049 0.619949 0.452169 192 192 192 255 
3 80 1 5 6 0.514081 0.503302 0.448705 0.477230 0.473255 0.424603 192 192 192 255 
3 80 5 6 6 0.514081 0.503302 0.473255 0.424603 0.529150 0.439677 192 192 192 255 
3 0 79 3 6 0.391594 0.434905 0.350620 0.374814 0.371999 0.359480 192 192 192 255 
3 0 3 4 6 0.391594 0.434905 0.371999 0.359480 0.420632 0.398329 192 192 192 255 
3 2 80 6 6 0.583377 0.509437 0.514081 0.503302 0.529150 0.439677 192 192 192 255 
3 2 6 7 6 0.583377 0.509437 0.529150 0.439677 0.588864 0.449049 192 192 192 255 
3 1 0 4 6 0.448705 0.477230 0.391594 0.434905 0.420632 0.398329 192 192 192 255 
3 1 4 5 6 0.448705 0.477230 0.420632 0.398329 0.473255 0.424603 192 192 192 255 
3 79 78 3 6 0.350620 0.374814 0.331162 0.307065 0.371999 0.359480 192 192 192 255 
3 7 6 11 6 0.588864 0.449049 0.529150 0.439677 0.538678 0.385279 192 192 192 255 
3 7 11 12 6 0.588864 0.449049 0.538678 0.385279 0.595806 0.391909 192 192 192 255 
3 5 4 9 6 0.473255 0.424603 0.420632 0.398329 0.437447 0.362128 192 192 192 255 
3 5 9 10 6 0.473255 0.424603 0.437447 0.362128 0.487446 0.376088 192 192 192 255 
3 3 78 8 6 0.371999 0.359480 0.331162 0.307065 0.385697 0.340468 192 192 192 255 
3 81 7 12 6 0.619949 0.452169 0.588864 0.449049 0.595806 0.391909 192 192 192 255 
3 81 12 82 6 0.619949 0.452169 0.595806 0.391909 0.626978 0.394930 192 192 192 255 
3 6 5 10 6 0.529150 0.439677 0.473255 0.424603 0.487446 0.376088 192 192 192 255 
3 6 10 11 6 0.529150 0.439677 0.487446 0.376088 0.538678 0.385279 192 192 192 255 
3 4 3 8 6 0.420632 0.398329 0.371999 0.359480 0.385697 0.340468 192 192 192 255 
3 4 8 9 6 0.420632 0.398329 0.385697 0.340468 0.437447 0.362128 192 192 192 255 
3 10 9 14 6 0.487446 0.376088 0.437447 0.362128 0.444971 0.326635 192 192 192 255 
3 10 14 15 6 0.487446 0.376088 0.444971 0.326635 0.493537 0.330614 192 192 192 255 
3 8 78 13 6 0.385697 0.340468 0.331162 0.307065 0.392485 0.319785 192 192 192 255 
3 82 12 17 6 0.626978 0.394930 0.595806 0.391909 0.600032 0.334995 192 192 192 255 
3 82 17 83 6 0.626978 0.394930 0.600032 0.334995 0.631954 0.335992 192 192 192 255 
3 11 10 15 6 0.538678 0.385279 0.487446 0.376088 0.493537 0.330614 192 192 192 255 
3 11 15 16 6 0.538678 0.385279 0.493537 0.330614 0.543171 0.333191 192 192 192 255 
3 9 8 13 6 0.437447 0.362128 0.385697 0.340468 0.392485 0.319785 192 192 192 255 
3 9 13 14 6 0.437447 0.362128 0.392485 0.319785 0.444971 0.326635 192 192 192 255 
3 12 11 16 6 0.595806 0.391909 0.538678 0.385279 0.543171 0.333191 192 192 192 255 
3 12 16 17 6 0.595806 0.391909 0.543171 0.333191 0.600032 0.334995 192 192 192 255 
3 83 17 22 6 0.631954 0.335992 0.600032 0.334995 0.599114 0.277112 192 192 192 255 
3 83 22 84 6 0.631954 0.335992 0.599114 0.277112 0.631954 0.274933 192 192 192 255 
3 16 15 20 6 0.543171 0.333191 0.493537 0.330614 0.492075 0.286306 192 192 192 255 
3 16 20 21 6 0.543171 0.333191 0.492075 0.286306 0.541454 0.281666 192 192 192 255 
3 14 13 18 6 0.444971 0.326635 0.392485 0.319785 0.392853 0.298764 192 192 192 255 
3 14 18 19 6 0.444971 0.326635 0.392853 0.298764 0.444356 0.291821 192 192 192 255 
3 17 16 21 6 0.600032 0.334995 0.543171 0.333191 0.541454 0.281666 192 192 192 255 
3 17 21 22 6 0.600032 0.334995 0.541454 0.281666 0.599114 0.277112 192 192 192 255 
3 15 14 19 6 0.493537 0.330614 0.444971 0.326635 0.444356 0.291821 192 192 192 255 
3 15 19 20 6 0.493537 0.330614 0.444356 0.291821 0.492075 0.286306 192 192 192 255 
3 13 78 18 6 0.392485 0.319785 0.331162 0.307065 0.392853 0.298764 192 192 192 255 
3 19 18 23 6 0.444356 0.291821 0.392853 0.298764 0.387013 0.278541 192 192 192 255 
3 19 23 24 6 0.444356 0.291821 0.387013 0.278541 0.435750 0.257860 192 192 192 255 
3 22 21 26 6 0.599114 0.277112 0.541454 0.281666 0.532622 0.229739 192 192 192 255 
3 22 26 27 6 0.599114 0.277112 0.532622 0.229739 0.591609 0.217902 192 192 192 255 
3 20 19 24 6 0.492075 0.286306 0.444356 0.291821 0.435750 0.257860 192 192 192 255 
3 20 24 25 6 0.492075 0.286306 0.435750 0.257860 0.482754 0.242361 192 192 192 255 
3 18 78 23 6 0.392853 0.298764 0.331162 0.307065 0.387013 0.278541 192 192 192 255 
3 84 22 27 6 0.631954 0.274933 0.599114 0.277112 0.591609 0.217902 192 192 192 255 
3 84 27 85 6 0.631954 0.274933 0.591609 0.217902 0.625282 0.212002 192 192 192 255 
3 21 20 25 6 0.541454 0.281666 0.492075 0.286306 0.482754 0.242361 192 192 192 255 
3 21 25 26 6 0.541454 0.281666 0.482754 0.242361 0.532622 0.229739 192 192 192 255 
3 27 26 31 6 0.591609 0.217902 0.532622 0.229739 0.515844 0.176527 192 192 192 255 
3 27 31 32 6 0.591609 0.217902 0.515844 0.176527 0.576991 0.157132 192 192 192 255 
3 25 24 29 6 0.482754 0.242361 0.435750 0.257860 0.418526 0.225227 192 192 192 255 
3 25 29 30 6 0.482754 0.242361 0.418526 0.225227 0.464632 0.198264 192 192 192 255 
3 23 78 28 6 0.387013 0.278541 0.331162 0.307065 0.374963 0.260374 192 192 192 255 
3 85 27 32 6 0.625282 0.212002 0.591609 0.217902 0.576991 0.157132 192 192 192 255 
3 85 32 86 6 0.625282 0.212002 0.576991 0.157132 0.611516 0.147680 192 192 192 255 
3 26 25 30 6 0.532622 0.229739 0.482754 0.242361 0.464632 0.198264 192 192 192 255 
3 26 30 31 6 0.532622 0.229739 0.464632 0.198264 0.515844 0.176527 192 192 192 255 
3 24 23 28 6 0.435750 0.257860 0.387013 0.278541 0.374963 0.260374 192 192 192 255 
3 24 28 29 6 0.435750 0.257860 0.374963 0.260374 0.418526 0.225227 192 192 192 255 
3 28 78 33 6 0.374963 0.260374 0.331162 0.307065 0.356639 0.245958 192 192 192 255 
3 86 32 37 6 0.611516 0.147680 0.576991 0.157132 0.555836 0.093717 192 192 192 255 
3 86 37 87 6 0.611516 0.147680 0.555836 0.093717 0.591875 0.082009 192 192 192 255 
3 31 30 35 6 0.515844 0.176527 0.464632 0.198264 0.435688 0.153285 192 192 192 255 
3 31 35 36 6 0.515844 0.176527 0.435688 0.153285 0.490054 0.120179 192 192 192 255 
3 29 28 33 6 0.418526 0.225227 0.374963 0.260374 0.356639 0.245958 192 192 192 255 
3 29 33 34 6 0.418526 0.225227 0.356639 0.245958 0.391135 0.194932 192 192 192 255 
3 32 31 36 6 0.576991 0.157132 0.515844 0.176527 0.490054 0.120179 192 192 192 255 
3 32 36 37 6 0.576991 0.157132 0.490054 0.120179 0.555836 0.093717 192 192 192 255 
3 30 29 34 6 0.464632 0.198264 0.418526 0.225227 0.391135 0.194932 192 192 192 255 
3 30 34 35 6 0.464632 0.198264 0.391135 0.194932 0.435688 0.153285 192 192 192 255 
3 87 37 42 6 0.591875 0.082009 0.555836 0.093717 0.531002 0.023493 192 192 192 255 
3 87 42 88 6 0.591875 0.082009 0.531002 0.023493 0.570446 0.013871 192 192 192 255 
3 36 35 40 6 0.490054 0.120179 0.435688 0.153285 0.391473 0.105844 192 192 192 255 
3 36 40 41 6 0.490054 0.120179 0.391473 0.105844 0.453298 0.055425 192 192 192 255 
3 34 33 38 6 0.391135 0.194932 0.356639 0.245958 0.332451 0.237829 192 192 192 255 
3 34 38 39 6 0.391135 0.194932 0.332451 0.237829 0.350827 0.169281 192 192 192 255 
3 37 36 41 6 0.555836 0.093717 0.490054 0.120179 0.453298 0.055425 192 192 192 255 
3 37 41 42 6 0.555836 0.093717 0.453298 0.055425 0.531002 0.023493 192 192 192 255 
3 35 34 39 6 0.435688 0.153285 0.391135 0.194932 0.350827 0.169281 192 192 192 255 
3 35 39 40 6 0.435688 0.153285 0.350827 0.169281 0.391473 0.105844 192 192 192 255 
3 33 78 38 6 0.356639 0.245958 0.331162 0.307065 0.332451 0.237829 192 192 192 255 
3 42 41 46 6 0.914375 0.504583 0.846796 0.498971 0.859797 0.437020 192 192 192 255 
3 42 46 47 6 0.914375 0.504583 0.859797 0.437020 0.919336 0.445347 192 192 192 255 
3 40 39 44 6 0.780188 0.476550 0.721188 0.433644 0.750488 0.396004 192 192 192 255 
3 40 44 45 6 0.780188 0.476550 0.750488 0.396004 0.803959 0.421599 192 192 192 255 
3 38 78 43 6 0.679348 0.372492 0.659695 0.303714 0.701043 0.356879 192 192 192 255 
3 88 42 47 6 0.946042 0.504240 0.914375 0.504583 0.919336 0.445347 192 192 192 255 
3 88 47 89 6 0.946042 0.504240 0.919336 0.445347 0.950057 0.448252 192 192 192 255 
3 41 40 45 6 0.846796 0.498971 0.780188 0.476550 0.803959 0.421599 192 192 192 255 
3 41 45 46 6 0.846796 0.498971 0.803959 0.421599 0.859797 0.437020 192 192 192 255 
3 39 38 43 6 0.721188 0.433644 0.679348 0.372492 0.701043 0.356879 192 192 192 255 
3 39 43 44 6 0.721188 0.433644 0.701043 0.356879 0.750488 0.396004 192 192 192 255 
3 47 46 51 6 0.919336 0.445347 0.859797 0.437020 0.869024 0.382219 192 192 192 255 
3 47 51 52 6 0.919336 0.445347 0.869024 0.382219 0.925906 0.388535 192 192 192 255 
3 45 44 49 6 0.803959 0.421599 0.750488 0.396004 0.767281 0.359375 192 192 192 255 
3 45 49 50 6 0.803959 0.421599 0.767281 0.359375 0.817696 0.373144 192 192 192 255 
3 43 78 48 6 0.701043 0.356879 0.659695 0.303714 0.714907 0.337609 192 192 192 255 
3 89 47 52 6 0.950057 0.448252 0.919336 0.445347 0.925906 0.388535 192 192 192 255 
3 89 52 90 6 0.950057 0.448252 0.925906 0.388535 0.956897 0.391459 192 192 192 255 
3 46 45 50 6 0.859797 0.437020 0.803959 0.421599 0.817696 0.373144 192 192 192 255 
3 46 50 51 6 0.859797 0.437020 0.817696 0.373144 0.869024 0.382219 192 192 192 255 
3 44 43 48 6 0.750488 0.396004 0.701043 0.356879 0.714907 0.337609 192 192 192 255 
3 44 48 49 6 0.750488 0.396004 0.714907 0.337609 0.767281 0.359375 192 192 192 255 
3 90 52 57 6 0.956897 0.391459 0.925906 0.388535 0.930021 0.331783 192 192 192 255 
3 90 57 91 6 0.956897 0.391459 0.930021 0.331783 0.961830 0.332758 192 192 192 255 
3 51 50 55 6 0.869024 0.382219 0.817696 0.373144 0.823637 0.327546 192 192 192 255 
3 51 55 56 6 0.869024 0.382219 0.823637 0.327546 0.873336 0.330067 192 192 192 255 
3 49 48 53 6 0.767281 0.359375 0.714907 0.337609 0.721782 0.316698 192 192 192 255 
3 49 53 54 6 0.767281 0.359375 0.721782 0.316698 0.774788 0.323611 192 192 192 255 
3 52 51 56 6 0.925906 0.388535 0.869024 0.382219 0.873336 0.330067 192 192 192 255 
3 52 56 57 6 0.925906 0.388535 0.873336 0.330067 0.930021 0.331783 192 192 192 255 
3 50 49 54 6 0.817696 0.373144 0.767281 0.359375 0.774788 0.323611 192 192 192 255 
3 50 54 55 6 0.817696 0.373144 0.774788 0.323611 0.823637 0.327546 192 192 192 255 
3 48 78 53 6 0.714907 0.337609 0.659695 0.303714 0.721782 0.316698 192 192 192 255 
3 56 55 60 6 0.873336 0.330067 0.823637 0.327546 0.822174 0.283105 192 192 192 255 
3 56 60 61 6 0.873336 0.330067 0.822174 0.283105 0.871597 0.278527 192 192 192 255 
3 54 53 58 6 0.774788 0.323611 0.721782 0.316698 0.722193 0.295462 192 192 192 255 
3 54 58 59 6 0.774788 0.323611 0.722193 0.295462 0.774194 0.288567 192 192 192 255 
3 57 56 61 6 0.930021 0.331783 0.873336 0.330067 0.871597 0.278527 192 192 192 255 
3 57 61 62 6 0.930021 0.331783 0.871597 0.278527 0.929097 0.274026 192 192 192 255 
3 55 54 59 6 0.823637 0.327546 0.774788 0.323611 0.774194 0.288567 192 192 192 255 
3 55 59 60 6 0.823637 0.327546 0.774194 0.288567 0.822174 0.283105 192 192 192 255 
3 53 78 58 6 0.721782 0.316698 0.659695 0.303714 0.722193 0.295462 192 192 192 255 
3 91 57 62 6 0.961830 0.332758 0.930021 0.331783 0.929097 0.274026 192 192 192 255 
3 91 62 92 6 0.961830 0.332758 0.929097 0.274026 0.961830 0.271861 192 192 192 255 
3 62 61 66 6 0.929097 0.274026 0.871597 0.278527 0.862895 0.226591 192 192 192 255 
3 62 66 67 6 0.929097 0.274026 0.862895 0.226591 0.921672 0.214984 192 192 192 255 
3 60 59 64 6 0.822174 0.283105 0.774194 0.288567 0.765648 0.254360 192 192 192 255 
3 60 64 65 6 0.822174 0.283105 0.765648 0.254360 0.812983 0.239010 192 192 192 255 
3 58 78 63 6 0.722193 0.295462 0.659695 0.303714 0.716359 0.275016 192 192 192 255 
3 92 62 67 6 0.961830 0.271861 0.929097 0.274026 0.921672 0.214984 192 192 192 255 
3 92 67 93 6 0.961830 0.271861 0.921672 0.214984 0.955175 0.209152 192 192 192 255 
3 61 60 65 6 0.871597 0.278527 0.822174 0.283105 0.812983 0.239010 192 192 192 255 
3 61 65 66 6 0.871597 0.278527 0.812983 0.239010 0.862895 0.226591 192 192 192 255 
3 59 58 63 6 0.774194 0.288567 0.722193 0.295462 0.716359 0.275016 192 192 192 255 
3 59 63 64 6 0.774194 0.288567 0.716359 0.275016 0.765648 0.254360 192 192 192 255 
3 65 64 69 6 0.812983 0.239010 0.765648 0.254360 0.748517 0.221400 192 192 192 255 
3 65 69 70 6 0.812983 0.239010 0.748517 0.221400 0.795169 0.194718 192 192 192 255 
3 63 78 68 6 0.716359 0.275016 0.659695 0.303714 0.704268 0.256594 192 192 192 255 
3 93 67 72 6 0.955175 0.209152 0.921672 0.214984 0.907302 0.154507 192 192 192 255 
3 93 72 94 6 0.955175 0.209152 0.907302 0.154507 0.941518 0.145270 192 192 192 255 
3 66 65 70 6 0.862895 0.226591 0.812983 0.239010 0.795169 0.194718 192 192 192 255 
3 66 70 71 6 0.862895 0.226591 0.795169 0.194718 0.846447 0.173306 192 192 192 255 
3 64 63 68 6 0.765648 0.254360 0.716359 0.275016 0.704268 0.256594 192 192 192 255 
3 64 68 69 6 0.765648 0.254360 0.704268 0.256594 0.748517 0.221400 192 192 192 255 
3 67 66 71 6 0.921672 0.214984 0.862895 0.226591 0.846447 0.173306 192 192 192 255 
3 67 71 72 6 0.921672 0.214984 0.846447 0.173306 0.907302 0.154507 192 192 192 255 
3 94 72 77 6 0.941518 0.145270 0.907302 0.154507 0.886816 0.091612 192 192 192 255 
3 94 77 95 6 0.941518 0.145270 0.886816 0.091612 0.922319 0.080461 192 192 192 255 
3 71 70 75 6 0.846447 0.173306 0.795169 0.194718 0.766873 0.149687 192 192 192 255 
3 71 75 76 6 0.846447 0.173306 0.766873 0.149687 0.821214 0.116395 192 192 192 255 
3 69 68 73 6 0.748517 0.221400 0.704268 0.256594 0.685804 0.241881 192 192 192 255 
3 69 73 74 6 0.748517 0.221400 0.685804 0.241881 0.721221 0.190528 192 192 192 255 
3 72 71 76 6 0.907302 0.154507 0.846447 0.173306 0.821214 0.116395 192 192 192 255 
3 72 76 77 6 0.907302 0.154507 0.821214 0.116395 0.886816 0.091612 192 192 192 255 
3 70 69 74 6 0.795169 0.194718 0.748517 0.221400 0.721221 0.190528 192 192 192 255 
3 70 74 75 6 0.795169 0.194718 0.721221 0.190528 0.766873 0.149687 192 192 192 255 
3 68 78 73 6 0.704268 0.256594 0.659695 0.303714 0.685804 0.241881 192 192 192 255 
3 74 73 79 6 0.721221 0.190528 0.685804 0.241881 0.661269 0.233493 192 192 192 255 
3 74 79 0 6 0.721221 0.190528 0.661269 0.233493 0.680343 0.163789 192 192 192 255 
3 77 76 80 6 0.886816 0.091612 0.821214 0.116395 0.787661 0.052908 192 192 192 255 
3 77 80 2 6 0.886816 0.091612 0.787661 0.052908 0.863575 0.022851 192 192 192 255 
3 75 74 0 6 0.766873 0.149687 0.721221 0.190528 0.680343 0.163789 192 192 192 255 
3 75 0 1 6 0.766873 0.149687 0.680343 0.163789 0.722986 0.098918 192 192 192 255 
3 73 78 79 6 0.685804 0.241881 0.659695 0.303714 0.661269 0.233493 192 192 192 255 
3 95 77 2 6 0.922319 0.080461 0.886816 0.091612 0.863575 0.022851 192 192 192 255 
3 95 2 96 6 0.922319 0.080461 0.863575 0.022851 0.902113 0.013871 192 192 192 255 
3 76 75 1 6 0.821214 0.116395 0.766873 0.149687 0.722986 0.098918 192 192 192 255 
3 76 1 80 6 0.821214 0.116395 0.722986 0.098918 0.787661 0.052908 192 192 192 255 
3 81 82 98 6 0.017123 0.298659 0.026569 0.249251 0.080433 0.263605 192 192 192 255 
3 81 98 97 6 0.017123 0.298659 0.080433 0.263605 0.072373 0.306232 192 192 192 255 
3 88 89 105 6 0.201757 0.686605 0.158701 0.658394 0.193159 0.614861 192 192 192 255 
3 88 105 104 6 0.201757 0.686605 0.193159 0.614861 0.226933 0.638402 192 192 192 255 
3 95 96 112 6 0.016858 0.399075 0.013871 0.348859 0.069641 0.349535 192 192 192 255 
3 95 112 111 6 0.016858 0.399075 0.069641 0.349535 0.072283 0.392840 192 192 192 255 
3 96 81 97 6 0.013871 0.348859 0.017123 0.298659 0.072373 0.306232 192 192 192 255 
3 96 97 112 6 0.013871 0.348859 0.072373 0.306232 0.069641 0.349535 192 192 192 255 
3 87 88 104 6 0.158980 0.041474 0.199897 0.013871 0.225285 0.059689 192 192 192 255 
3 87 104 103 6 0.158980 0.041474 0.225285 0.059689 0.192379 0.083836 192 192 192 255 
3 94 95 111 6 0.026038 0.448535 0.016858 0.399075 0.072283 0.392840 192 192 192 255 
3 94 111 110 6 0.026038 0.448535 0.072283 0.392840 0.080264 0.435475 192 192 192 255 
3 86 87 103 6 0.122298 0.075091 0.158980 0.041474 0.192379 0.083836 192 192 192 255 
3 86 103 102 6 0.122298 0.075091 0.192379 0.083836 0.161843 0.113125 192 192 192 255 
3 93 94 110 6 0.041284 0.496486 0.026038 0.448535 0.080264 0.435475 192 192 192 255 
3 93 110 109 6 0.041284 0.496486 0.080264 0.435475 0.093467 0.476773 192 192 192 255 
3 85 86 102 6 0.090291 0.113540 0.122298 0.075091 0.161843 0.113125 192 192 192 255 
3 85 102 101 6 0.090291 0.113540 0.161843 0.113125 0.134793 0.146433 192 192 192 255 
3 92 93 109 6 0.062394 0.542191 0.041284 0.496486 0.093467 0.476773 192 192 192 255 
3 92 109 108 6 0.062394 0.542191 0.093467 0.476773 0.111701 0.516071 192 192 192 255 
3 84 85 101 6 0.063420 0.155917 0.090291 0.113540 0.134793 0.146433 192 192 192 255 
3 84 101 100 6 0.063420 0.155917 0.134793 0.146433 0.111919 0.183050 192 192 192 255 
3 91 92 108 6 0.089128 0.584935 0.062394 0.542191 0.111701 0.516071 192 192 192 255 
3 91 108 107 6 0.089128 0.584935 0.111701 0.516071 0.134689 0.552695 192 192 192 255 
3 83 84 100 6 0.042076 0.201413 0.063420 0.155917 0.111919 0.183050 192 192 192 255 
3 83 100 99 6 0.042076 0.201413 0.111919 0.183050 0.093690 0.222324 192 192 192 255 
3 90 91 107 6 0.121260 0.623976 0.089128 0.584935 0.134689 0.552695 192 192 192 255 
3 90 107 106 6 0.121260 0.623976 0.134689 0.552695 0.162043 0.585920 192 192 192 255 
3 82 83 99 6 0.026569 0.249251 0.042076 0.201413 0.093690 0.222324 192 192 192 255 
3 82 99 98 6 0.026569 0.249251 0.093690 0.222324 0.080433 0.263605 192 192 192 255 
3 89 90 106 6 0.158701 0.658394 0.121260 0.623976 0.162043 0.585920 192 192 192 255 
3 89 106 105 6 0.158701 0.658394 0.162043 0.585920 0.193159 0.614861 192 192 192 255 
3 106 107 123 6 0.162043 0.585920 0.134689 0.552695 0.174333 0.524704 192 192 192 255 
3 106 123 122 6 0.162043 0.585920 0.174333 0.524704 0.197637 0.553443 192 192 192 255 
3 98 99 115 6 0.080433 0.263605 0.093690 0.222324 0.139000 0.240329 192 192 192 255 
3 98 115 114 6 0.080433 0.263605 0.139000 0.240329 0.127650 0.275895 192 192 192 255 
3 105 106 122 6 0.193159 0.614861 0.162043 0.585920 0.197637 0.553443 192 192 192 255 
3 105 122 121 6 0.193159 0.614861 0.197637 0.553443 0.223892 0.578924 192 192 192 255 
3 97 98 114 6 0.072373 0.306232 0.080433 0.263605 0.127650 0.275895 192 192 192 255 
3 97 114 113 6 0.072373 0.306232 0.127650 0.275895 0.120757 0.312604 192 192 192 255 
3 104 105 121 6 0.226933 0.638402 0.193159 0.614861 0.223892 0.578924 192 192 192 255 
3 104 121 120 6 0.226933 0.638402 0.223892 0.578924 0.251612 0.600816 192 192 192 255 
3 111 112 128 6 0.072283 0.392840 0.069641 0.349535 0.118440 0.349883 192 192 192 255 
3 111 128 127 6 0.072283 0.392840 0.118440 0.349883 0.120740 0.387155 192 192 192 255 
3 112 97 113 6 0.069641 0.349535 0.072373 0.306232 0.120757 0.312604 192 192 192 255 
3 112 113 128 6 0.069641 0.349535 0.120757 0.312604 0.118440 0.349883 192 192 192 255 
3 103 104 120 6 0.192379 0.083836 0.225285 0.059689 0.251569 0.096971 192 192 192 255 
3 103 120 119 6 0.192379 0.083836 0.251569 0.096971 0.223397 0.119870 192 192 192 255 
3 110 111 127 6 0.080264 0.435475 0.072283 0.392840 0.120740 0.387155 192 192 192 255 
3 110 127 126 6 0.080264 0.435475 0.120740 0.387155 0.127625 0.423841 192 192 192 255 
3 102 103 119 6 0.161843 0.113125 0.192379 0.083836 0.223397 0.119870 192 192 192 255 
3 102 119 118 6 0.161843 0.113125 0.223397 0.119870 0.197309 0.145829 192 192 192 255 
3 109 110 126 6 0.093467 0.476773 0.080264 0.435475 0.127625 0.423841 192 192 192 255 
3 109 126 125 6 0.093467 0.476773 0.127625 0.423841 0.138989 0.459367 192 192 192 255 
3 101 102 118 6 0.134793 0.146433 0.161843 0.113125 0.197309 0.145829 192 192 192 255 
3 101 118 117 6 0.134793 0.146433 0.197309 0.145829 0.174181 0.174803 192 192 192 255 
3 108 109 125 6 0.111701 0.516071 0.093467 0.476773 0.138989 0.459367 192 192 192 255 
3 108 125 124 6 0.111701 0.516071 0.138989 0.459367 0.154649 0.493170 192 192 192 255 
3 100 101 117 6 0.111919 0.183050 0.134793 0.146433 0.174181 0.174803 192 192 192 255 
3 100 117 116 6 0.111919 0.183050 0.174181 0.174803 0.154608 0.206458 192 192 192 255 
3 107 108 124 6 0.134689 0.552695 0.111701 0.516071 0.154649 0.493170 192 192 192 255 
3 107 124 123 6 0.134689 0.552695 0.154649 0.493170 0.174333 0.524704 192 192 192 255 
3 99 100 116 6 0.093690 0.222324 0.111919 0.183050 0.154608 0.206458 192 192 192 255 
3 99 116 115 6 0.093690 0.222324 0.154608 0.206458 0.139000 0.240329 192 192 192 255 
3 220 222 135 6 0.249820 0.192533 0.270865 0.172637 0.281480 0.185899 192 192 192 255 
3 220 135 134 6 0.249820 0.192533 0.281480 0.185899 0.262242 0.204111 192 192 192 255 
3 234 236 142 6 0.204028 0.433791 0.195385 0.406460 0.211883 0.402419 192 192 192 255 
3 234 142 141 6 0.204028 0.433791 0.211883 0.402419 0.219892 0.427747 192 192 192 255 
3 218 220 134 6 0.231696 0.214883 0.249820 0.192533 0.262242 0.204111 192 192 192 255 
3 218 134 133 6 0.231696 0.214883 0.262242 0.204111 0.245518 0.224796 192 192 192 255 
3 232 234 141 6 0.215973 0.459839 0.204028 0.433791 0.219892 0.427747 192 192 192 255 
3 232 141 140 6 0.215973 0.459839 0.219892 0.427747 0.230965 0.451876 192 192 192 255 
3 216 218 133 6 0.216516 0.239291 0.231696 0.214883 0.245518 0.224796 192 192 192 255 
3 216 133 132 6 0.216516 0.239291 0.245518 0.224796 0.231468 0.247433 192 192 192 255 
3 230 232 140 6 0.231056 0.484227 0.215973 0.459839 0.230965 0.451876 192 192 192 255 
3 230 140 139 6 0.231056 0.484227 0.230965 0.451876 0.244952 0.474438 192 192 192 255 
3 214 216 132 6 0.204451 0.265373 0.216516 0.239291 0.231468 0.247433 192 192 192 255 
3 214 132 131 6 0.204451 0.265373 0.231468 0.247433 0.220289 0.271625 192 192 192 255 
3 228 230 139 6 0.249120 0.506634 0.231056 0.484227 0.244952 0.474438 192 192 192 255 
3 228 139 138 6 0.249120 0.506634 0.244952 0.474438 0.261701 0.495076 192 192 192 255 
3 241 210 129 6 0.188477 0.349609 0.190320 0.320955 0.207193 0.323163 192 192 192 255 
3 241 129 144 6 0.188477 0.349609 0.207193 0.323163 0.205484 0.349725 192 192 192 255 
3 226 228 138 6 0.270145 0.526825 0.249120 0.506634 0.261701 0.495076 192 192 192 255 
3 226 138 137 6 0.270145 0.526825 0.261701 0.495076 0.281135 0.513394 192 192 192 255 
3 113 114 213 6 0.120757 0.312604 0.127650 0.275895 0.179718 0.288792 192 192 192 255 
3 113 213 211 6 0.120757 0.312604 0.179718 0.288792 0.174007 0.319003 192 192 192 255 
3 224 226 137 6 0.294909 0.544610 0.270145 0.526825 0.281135 0.513394 192 192 192 255 
3 224 137 136 6 0.294909 0.544610 0.281135 0.513394 0.303421 0.528715 192 192 192 255 
3 238 241 144 6 0.190174 0.378256 0.188477 0.349609 0.205484 0.349725 192 192 192 255 
3 238 144 143 6 0.190174 0.378256 0.205484 0.349725 0.207056 0.376278 192 192 192 255 
3 222 224 136 6 0.270865 0.172637 0.295538 0.155594 0.303421 0.171185 192 192 192 255 
3 222 136 135 6 0.270865 0.172637 0.303421 0.171185 0.281480 0.185899 192 192 192 255 
3 236 238 143 6 0.195385 0.406460 0.190174 0.378256 0.207056 0.376278 192 192 192 255 
3 236 143 142 6 0.195385 0.406460 0.207056 0.376278 0.211883 0.402419 192 192 192 255 
3 212 214 131 6 0.195673 0.292734 0.204451 0.265373 0.220289 0.271625 192 192 192 255 
3 212 131 130 6 0.195673 0.292734 0.220289 0.271625 0.212154 0.296997 192 192 192 255 
3 119 120 225 6 0.223397 0.119870 0.251569 0.096971 0.286408 0.140269 192 192 192 255 
3 119 225 223 6 0.223397 0.119870 0.286408 0.140269 0.260091 0.159855 192 192 192 255 
3 126 127 239 6 0.127625 0.423841 0.120740 0.387155 0.173894 0.380347 192 192 192 255 
3 126 239 237 6 0.127625 0.423841 0.173894 0.380347 0.179495 0.410540 192 192 192 255 
3 118 119 223 6 0.197309 0.145829 0.223397 0.119870 0.260091 0.159855 192 192 192 255 
3 118 223 221 6 0.197309 0.145829 0.260091 0.159855 0.237607 0.181456 192 192 192 255 
3 125 126 237 6 0.138989 0.459367 0.127625 0.423841 0.179495 0.410540 192 192 192 255 
3 125 237 235 6 0.138989 0.459367 0.179495 0.410540 0.188771 0.439796 192 192 192 255 
3 117 118 221 6 0.174181 0.174803 0.197309 0.145829 0.237607 0.181456 192 192 192 255 
3 117 221 219 6 0.174181 0.174803 0.237607 0.181456 0.218230 0.205450 192 192 192 255 
3 124 125 235 6 0.154649 0.493170 0.138989 0.459367 0.188771 0.439796 192 192 192 255 
3 124 235 233 6 0.154649 0.493170 0.188771 0.439796 0.201573 0.467680 192 192 192 255 
3 116 117 219 6 0.154608 0.206458 0.174181 0.174803 0.218230 0.205450 192 192 192 255 
3 116 219 217 6 0.154608 0.206458 0.218230 0.205450 0.201998 0.231586 192 192 192 255 
3 123 124 233 6 0.174333 0.524704 0.154649 0.493170 0.201573 0.467680 192 192 192 255 
3 123 233 231 6 0.174333 0.524704 0.201573 0.467680 0.217712 0.493802 192 192 192 255 
3 115 116 217 6 0.139000 0.240329 0.154608 0.206458 0.201998 0.231586 192 192 192 255 
3 115 217 215 6 0.139000 0.240329 0.201998 0.231586 0.189097 0.259505 192 192 192 255 
3 122 123 231 6 0.197637 0.553443 0.174333 0.524704 0.217712 0.493802 192 192 192 255 
3 122 231 229 6 0.197637 0.553443 0.217712 0.493802 0.236988 0.517866 192 192 192 255 
3 114 115 215 6 0.127650 0.275895 0.139000 0.240329 0.189097 0.259505 192 192 192 255 
3 114 215 213 6 0.127650 0.275895 0.189097 0.259505 0.179718 0.288792 192 192 192 255 
3 121 122 229 6 0.223892 0.578924 0.197637 0.553443 0.236988 0.517866 192 192 192 255 
3 121 229 227 6 0.223892 0.578924 0.236988 0.517866 0.259325 0.539755 192 192 192 255 
3 128 113 211 6 0.118440 0.349883 0.120757 0.312604 0.174007 0.319003 192 192 192 255 
3 128 211 240 6 0.118440 0.349883 0.174007 0.319003 0.172055 0.349679 192 192 192 255 
3 120 121 227 6 0.251612 0.600816 0.223892 0.578924 0.259325 0.539755 192 192 192 255 
3 120 227 225 6 0.251612 0.600816 0.259325 0.539755 0.285190 0.559716 192 192 192 255 
3 127 128 240 6 0.120740 0.387155 0.118440 0.349883 0.172055 0.349679 192 192 192 255 
3 127 240 239 6 0.120740 0.387155 0.172055 0.349679 0.173894 0.380347 192 192 192 255 
3 182 184 148 6 0.767729 0.688786 0.773517 0.667156 0.793955 0.673848 192 192 192 255 
3 182 148 147 6 0.767729 0.688786 0.793955 0.673848 0.788890 0.693984 192 192 192 255 
3 196 198 155 6 0.785536 0.894350 0.776670 0.871382 0.798809 0.864087 192 192 192 255 
3 196 155 154 6 0.785536 0.894350 0.798809 0.864087 0.807213 0.884595 192 192 192 255 
3 209 178 145 6 0.759580 0.756230 0.760799 0.733436 0.782888 0.735758 192 192 192 255 
3 209 145 160 6 0.759580 0.756230 0.782888 0.735758 0.781937 0.757110 192 192 192 255 
3 194 196 154 6 0.797249 0.917445 0.785536 0.894350 0.807213 0.884595 192 192 192 255 
3 194 154 153 6 0.797249 0.917445 0.807213 0.884595 0.818048 0.904151 192 192 192 255 
3 129 130 181 6 0.661851 0.724875 0.665652 0.696056 0.751294 0.709097 192 192 192 255 
3 129 181 179 6 0.661851 0.724875 0.751294 0.709097 0.748412 0.732432 192 192 192 255 
3 192 194 153 6 0.813793 0.941235 0.797249 0.917445 0.818048 0.904151 192 192 192 255 
3 192 153 152 6 0.813793 0.941235 0.818048 0.904151 0.832294 0.921838 192 192 192 255 
3 206 209 160 6 0.759854 0.779203 0.759580 0.756230 0.781937 0.757110 192 192 192 255 
3 206 160 159 6 0.759854 0.779203 0.781937 0.757110 0.782371 0.778620 192 192 192 255 
3 190 192 152 6 0.802720 0.606531 0.819289 0.588029 0.832294 0.605942 192 192 192 255 
3 190 152 151 6 0.802720 0.606531 0.832294 0.605942 0.818960 0.619603 192 192 192 255 
3 204 206 159 6 0.761639 0.802268 0.759854 0.779203 0.782371 0.778620 192 192 192 255 
3 204 159 158 6 0.761639 0.802268 0.782371 0.778620 0.784215 0.800183 192 192 192 255 
3 188 190 151 6 0.790518 0.625903 0.802720 0.606531 0.818960 0.619603 192 192 192 255 
3 188 151 150 6 0.790518 0.625903 0.818960 0.619603 0.808661 0.636208 192 192 192 255 
3 202 204 158 6 0.764971 0.825349 0.761639 0.802268 0.784215 0.800183 192 192 192 255 
3 202 158 157 6 0.764971 0.825349 0.784215 0.800183 0.787510 0.821696 192 192 192 255 
3 186 188 150 6 0.781011 0.646152 0.790518 0.625903 0.808661 0.636208 192 192 192 255 
3 186 150 149 6 0.781011 0.646152 0.808661 0.636208 0.800479 0.654480 192 192 192 255 
3 200 202 157 6 0.769928 0.848394 0.764971 0.825349 0.787510 0.821696 192 192 192 255 
3 200 157 156 6 0.769928 0.848394 0.787510 0.821696 0.792330 0.843046 192 192 192 255 
3 184 186 149 6 0.773517 0.667156 0.781011 0.646152 0.800479 0.654480 192 192 192 255 
3 184 149 148 6 0.773517 0.667156 0.800479 0.654480 0.793955 0.673848 192 192 192 255 
3 198 200 156 6 0.776670 0.871382 0.769928 0.848394 0.792330 0.843046 192 192 192 255 
3 198 156 155 6 0.776670 0.871382 0.792330 0.843046 0.798809 0.864087 192 192 192 255 
3 140 141 203 6 0.670174 0.871332 0.664873 0.842069 0.752377 0.827668 192 192 192 255 
3 140 203 201 6 0.670174 0.871332 0.752377 0.827668 0.757355 0.851630 192 192 192 255 
3 132 133 187 6 0.678560 0.639629 0.687585 0.612133 0.769645 0.641623 192 192 192 255 
3 132 187 185 6 0.678560 0.639629 0.769645 0.641623 0.761816 0.663615 192 192 192 255 
3 139 140 201 6 0.677196 0.900399 0.670174 0.871332 0.757355 0.851630 192 192 192 255 
3 139 201 199 6 0.677196 0.900399 0.757355 0.851630 0.764104 0.875659 192 192 192 255 
3 131 132 185 6 0.671233 0.667618 0.678560 0.639629 0.761816 0.663615 192 192 192 255 
3 131 185 183 6 0.671233 0.667618 0.761816 0.663615 0.755742 0.686128 192 192 192 255 
3 138 139 199 6 0.685792 0.929236 0.677196 0.900399 0.764104 0.875659 192 192 192 255 
3 138 199 197 6 0.685792 0.929236 0.764104 0.875659 0.772914 0.899927 192 192 192 255 
3 130 131 183 6 0.665652 0.696056 0.671233 0.667618 0.755742 0.686128 192 192 192 255 
3 130 183 181 6 0.665652 0.696056 0.755742 0.686128 0.751294 0.709097 192 192 192 255 
3 137 138 197 6 0.695692 0.957918 0.685792 0.929236 0.772914 0.899927 192 192 192 255 
3 137 197 195 6 0.695692 0.957918 0.772914 0.899927 0.784437 0.924847 192 192 192 255 
3 144 129 179 6 0.659859 0.753987 0.661851 0.724875 0.748412 0.732432 192 192 192 255 
3 144 179 208 6 0.659859 0.753987 0.748412 0.732432 0.747075 0.756040 192 192 192 255 
3 136 137 195 6 0.706106 0.986129 0.695692 0.957918 0.784437 0.924847 192 192 192 255 
3 136 195 193 6 0.706106 0.986129 0.784437 0.924847 0.800048 0.951449 192 192 192 255 
3 143 144 208 6 0.659695 0.783293 0.659859 0.753987 0.747075 0.756040 192 192 192 255 
3 143 208 207 6 0.659695 0.783293 0.747075 0.756040 0.747281 0.779831 192 192 192 255 
3 180 182 147 6 0.763509 0.710919 0.767729 0.688786 0.788890 0.693984 192 192 192 255 
3 180 147 146 6 0.763509 0.710919 0.788890 0.693984 0.785207 0.714673 192 192 192 255 
3 135 136 193 6 0.710401 0.558576 0.723786 0.532325 0.808910 0.577331 192 192 192 255 
3 135 193 191 6 0.710401 0.558576 0.808910 0.577331 0.792087 0.599026 192 192 192 255 
3 142 143 207 6 0.661369 0.812689 0.659695 0.783293 0.747281 0.779831 192 192 192 255 
3 142 207 205 6 0.661369 0.812689 0.747281 0.779831 0.749039 0.803727 192 192 192 255 
3 134 135 191 6 0.698241 0.585132 0.710401 0.558576 0.792087 0.599026 192 192 192 255 
3 134 191 189 6 0.698241 0.585132 0.792087 0.599026 0.779516 0.620147 192 192 192 255 
3 141 142 205 6 0.664873 0.842069 0.661369 0.812689 0.749039 0.803727 192 192 192 255 
3 141 205 203 6 0.664873 0.842069 0.749039 0.803727 0.752377 0.827668 192 192 192 255 
3 133 134 189 6 0.687585 0.612133 0.698241 0.585132 0.779516 0.620147 192 192 192 255 
3 133 189 187 6 0.687585 0.612133 0.779516 0.620147 0.769645 0.641623 192 192 192 255 
3 151 152 168 6 0.420286 0.613764 0.406296 0.627072 0.394256 0.608072 192 192 192 255 
3 151 168 167 6 0.420286 0.613764 0.394256 0.608072 0.401695 0.600718 192 192 192 255 
3 158 159 175 6 0.331162 0.575954 0.338473 0.558166 0.357424 0.570405 192 192 192 255 
3 158 175 174 6 0.331162 0.575954 0.357424 0.570405 0.353361 0.580002 192 192 192 255 
3 150 151 167 6 0.428137 0.595722 0.420286 0.613764 0.401695 0.600718 192 192 192 255 
3 150 167 166 6 0.428137 0.595722 0.401695 0.600718 0.405717 0.591085 192 192 192 255 
3 157 158 174 6 0.331223 0.595174 0.331162 0.575954 0.353361 0.580002 192 192 192 255 
3 157 174 173 6 0.331223 0.595174 0.353361 0.580002 0.353283 0.590442 192 192 192 255 
3 149 150 166 6 0.428137 0.576044 0.428137 0.595722 0.405717 0.591085 192 192 192 255 
3 149 166 165 6 0.428137 0.576044 0.405717 0.591085 0.405837 0.580723 192 192 192 255 
3 156 157 173 6 0.338614 0.612888 0.331223 0.595174 0.353283 0.590442 192 192 192 255 
3 156 173 172 6 0.338614 0.612888 0.353283 0.590442 0.357198 0.600137 192 192 192 255 
3 148 149 165 6 0.420583 0.558148 0.428137 0.576044 0.405837 0.580723 192 192 192 255 
3 148 165 164 6 0.420583 0.558148 0.405837 0.580723 0.401904 0.571074 192 192 192 255 
3 155 156 172 6 0.352157 0.626411 0.338614 0.612888 0.357198 0.600137 192 192 192 255 
3 155 172 171 6 0.352157 0.626411 0.357198 0.600137 0.364506 0.607626 192 192 192 255 
3 147 148 164 6 0.406883 0.544584 0.420583 0.558148 0.401904 0.571074 192 192 192 255 
3 147 164 163 6 0.406883 0.544584 0.401904 0.571074 0.394486 0.563652 192 192 192 255 
3 154 155 171 6 0.369727 0.633749 0.352157 0.626411 0.364506 0.607626 192 192 192 255 
3 154 171 170 6 0.369727 0.633749 0.364506 0.607626 0.374100 0.611797 192 192 192 255 
3 146 147 163 6 0.389082 0.537200 0.406883 0.544584 0.394486 0.563652 192 192 192 255 
3 146 163 162 6 0.389082 0.537200 0.394486 0.563652 0.384908 0.559443 192 192 192 255 
3 153 154 170 6 0.388606 0.633940 0.369727 0.633749 0.374100 0.611797 192 192 192 255 
3 153 170 169 6 0.388606 0.633940 0.374100 0.611797 0.384550 0.612049 192 192 192 255 
3 145 146 162 6 0.369828 0.537178 0.389082 0.537200 0.384908 0.559443 192 192 192 255 
3 145 162 161 6 0.369828 0.537178 0.384908 0.559443 0.374504 0.559260 192 192 192 255 
3 152 153 169 6 0.406296 0.627072 0.388606 0.633940 0.384550 0.612049 192 192 192 255 
3 152 169 168 6 0.406296 0.627072 0.384550 0.612049 0.394256 0.608072 192 192 192 255 
3 159 160 176 6 0.338473 0.558166 0.352053 0.544543 0.364852 0.563117 192 192 192 255 
3 159 176 175 6 0.338473 0.558166 0.364852 0.563117 0.357424 0.570405 192 192 192 255 
3 160 145 161 6 0.352053 0.544543 0.369828 0.537178 0.374504 0.559260 192 192 192 255 
3 160 161 176 6 0.352053 0.544543 0.374504 0.559260 0.364852 0.563117 192 192 192 255 
3 162 163 177 6 0.455879 0.570469 0.455879 0.559423 0.483646 0.564946 192 192 192 255 
3 169 170 177 6 0.507187 0.549217 0.511414 0.559423 0.483646 0.564946 192 192 192 255 
3 161 162 177 6 0.460106 0.580675 0.455879 0.570469 0.483646 0.564946 192 192 192 255 
3 168 169 177 6 0.499375 0.541406 0.507187 0.549217 0.483646 0.564946 192 192 192 255 
3 175 176 177 6 0.478123 0.592714 0.467917 0.588486 0.483646 0.564946 192 192 192 255 
3 176 161 177 6 0.467917 0.588486 0.460106 0.580675 0.483646 0.564946 192 192 192 255 
3 167 168 177 6 0.489170 0.537178 0.499375 0.541406 0.483646 0.564946 192 192 192 255 
3 174 175 177 6 0.489170 0.592714 0.478123 0.592714 0.483646 0.564946 192 192 192 255 
3 166 167 177 6 0.478123 0.537178 0.489170 0.537178 0.483646 0.564946 192 192 192 255 
3 173 174 177 6 0.499375 0.588486 0.489170 0.592714 0.483646 0.564946 192 192 192 255 
3 165 166 177 6 0.467917 0.541406 0.478123 0.537178 0.483646 0.564946 192 192 192 255 
3 172 173 177 6 0.507187 0.580675 0.499375 0.588486 0.483646 0.564946 192 192 192 255 
3 164 165 177 6 0.460106 0.549217 0.467917 0.541406 0.483646 0.564946 192 192 192 255 
3 171 172 177 6 0.511414 0.570469 0.507187 0.580675 0.483646 0.564946 192 192 192 255 
3 163 164 177 6 0.455879 0.559423 0.460106 0.549217 0.483646 0.564946 192 192 192 255 
3 170 171 177 6 0.511414 0.559423 0.511414 0.570469 0.483646 0.564946 192 192 192 255 
3 207 208 209 6 0.747281 0.779831 0.747075 0.756040 0.759580 0.756230 192 192 192 255 
3 207 209 206 6 0.747281 0.779831 0.759580 0.756230 0.759854 0.779203 192 192 192 255 
3 205 207 206 6 0.749039 0.803727 0.747281 0.779831 0.759854 0.779203 192 192 192 255 
3 205 206 204 6 0.749039 0.803727 0.759854 0.779203 0.761639 0.802268 192 192 192 255 
3 203 205 204 6 0.752377 0.827668 0.749039 0.803727 0.761639 0.802268 192 192 192 255 
3 203 204 202 6 0.752377 0.827668 0.761639 0.802268 0.764971 0.825349 192 192 192 255 
3 201 203 202 6 0.757355 0.851630 0.752377 0.827668 0.764971 0.825349 192 192 192 255 
3 201 202 200 6 0.757355 0.851630 0.764971 0.825349 0.769928 0.848394 192 192 192 255 
3 199 201 200 6 0.764104 0.875659 0.757355 0.851630 0.769928 0.848394 192 192 192 255 
3 199 200 198 6 0.764104 0.875659 0.769928 0.848394 0.776670 0.871382 192 192 192 255 
3 197 199 198 6 0.772914 0.899927 0.764104 0.875659 0.776670 0.871382 192 192 192 255 
3 197 198 196 6 0.772914 0.899927 0.776670 0.871382 0.785536 0.894350 192 192 192 255 
3 195 197 196 6 0.784437 0.924847 0.772914 0.899927 0.785536 0.894350 192 192 192 255 
3 195 196 194 6 0.784437 0.924847 0.785536 0.894350 0.797249 0.917445 192 192 192 255 
3 193 195 194 6 0.800048 0.951449 0.784437 0.924847 0.797249 0.917445 192 192 192 255 
3 193 194 192 6 0.800048 0.951449 0.797249 0.917445 0.813793 0.941235 192 192 192 255 
3 191 193 192 6 0.792087 0.599026 0.808910 0.577331 0.819289 0.588029 192 192 192 255 
3 191 192 190 6 0.792087 0.599026 0.819289 0.588029 0.802720 0.606531 192 192 192 255 
3 189 191 190 6 0.779516 0.620147 0.792087 0.599026 0.802720 0.606531 192 192 192 255 
3 189 190 188 6 0.779516 0.620147 0.802720 0.606531 0.790518 0.625903 192 192 192 255 
3 187 189 188 6 0.769645 0.641623 0.779516 0.620147 0.790518 0.625903 192 192 192 255 
3 187 188 186 6 0.769645 0.641623 0.790518 0.625903 0.781011 0.646152 192 192 192 255 
3 185 187 186 6 0.761816 0.663615 0.769645 0.641623 0.781011 0.646152 192 192 192 255 
3 185 186 184 6 0.761816 0.663615 0.781011 0.646152 0.773517 0.667156 192 192 192 255 
3 183 185 184 6 0.755742 0.686128 0.761816 0.663615 0.773517 0.667156 192 192 192 255 
3 183 184 182 6 0.755742 0.686128 0.773517 0.667156 0.767729 0.688786 192 192 192 255 
3 181 183 182 6 0.751294 0.709097 0.755742 0.686128 0.767729 0.688786 192 192 192 255 
3 181 182 180 6 0.751294 0.709097 0.767729 0.688786 0.763509 0.710919 192 192 192 255 
3 179 181 180 6 0.748412 0.732432 0.751294 0.709097 0.763509 0.710919 192 192 192 255 
3 179 180 178 6 0.748412 0.732432 0.763509 0.710919 0.760799 0.733436 192 192 192 255 
3 208 179 178 6 0.747075 0.756040 0.748412 0.732432 0.760799 0.733436 192 192 192 255 
3 208 178 209 6 0.747075 0.756040 0.760799 0.733436 0.759580 0.756230 192 192 192 255 
3 178 180 146 6 0.760799 0.733436 0.763509 0.710919 0.785207 0.714673 192 192 192 255 
3 178 146 145 6 0.760799 0.733436 0.785207 0.714673 0.782888 0.735758 192 192 192 255 
3 239 240 241 6 0.173894 0.380347 0.172055 0.349679 0.188477 0.349609 192 192 192 255 
3 239 241 238 6 0.173894 0.380347 0.188477 0.349609 0.190174 0.378256 192 192 192 255 
3 237 239 238 6 0.179495 0.410540 0.173894 0.380347 0.190174 0.378256 192 192 192 255 
3 237 238 236 6 0.179495 0.410540 0.190174 0.378256 0.195385 0.406460 192 192 192 255 
3 235 237 236 6 0.188771 0.439796 0.179495 0.410540 0.195385 0.406460 192 192 192 255 
3 235 236 234 6 0.188771 0.439796 0.195385 0.406460 0.204028 0.433791 192 192 192 255 
3 233 235 234 6 0.201573 0.467680 0.188771 0.439796 0.204028 0.433791 192 192 192 255 
3 233 234 232 6 0.201573 0.467680 0.204028 0.433791 0.215973 0.459839 192 192 192 255 
3 231 233 232 6 0.217712 0.493802 0.201573 0.467680 0.215973 0.459839 192 192 192 255 
3 231 232 230 6 0.217712 0.493802 0.215973 0.459839 0.231056 0.484227 192 192 192 255 
3 229 231 230 6 0.236988 0.517866 0.217712 0.493802 0.231056 0.484227 192 192 192 255 
3 229 230 228 6 0.236988 0.517866 0.231056 0.484227 0.249120 0.506634 192 192 192 255 
3 227 229 228 6 0.259325 0.539755 0.236988 0.517866 0.249120 0.506634 192 192 192 255 
3 227 228 226 6 0.259325 0.539755 0.249120 0.506634 0.270145 0.526825 192 192 192 255 
3 225 227 226 6 0.285190 0.559716 0.259325 0.539755 0.270145 0.526825 192 192 192 255 
3 225 226 224 6 0.285190 0.559716 0.270145 0.526825 0.294909 0.544610 192 192 192 255 
3 223 225 224 6 0.260091 0.159855 0.286408 0.140269 0.295538 0.155594 192 192 192 255 
3 223 224 222 6 0.260091 0.159855 0.295538 0.155594 0.270865 0.172637 192 192 192 255 
3 221 223 222 6 0.237607 0.181456 0.260091 0.159855 0.270865 0.172637 192 192 192 255 
3 221 222 220 6 0.237607 0.181456 0.270865 0.172637 0.249820 0.192533 192 192 192 255 
3 219 221 220 6 0.218230 0.205450 0.237607 0.181456 0.249820 0.192533 192 192 192 255 
3 219 220 218 6 0.218230 0.205450 0.249820 0.192533 0.231696 0.214883 192 192 192 255 
3 217 219 218 6 0.201998 0.231586 0.218230 0.205450 0.231696 0.214883 192 192 192 255 
3 217 218 216 6 0.201998 0.231586 0.231696 0.214883 0.216516 0.239291 192 192 192 255 
3 215 217 216 6 0.189097 0.259505 0.201998 0.231586 0.216516 0.239291 192 192 192 255 
3 215 216 214 6 0.189097 0.259505 0.216516 0.239291 0.204451 0.265373 192 192 192 255 
3 213 215 214 6 0.179718 0.288792 0.189097 0.259505 0.204451 0.265373 192 192 192 255 
3 213 214 212 6 0.179718 0.288792 0.204451 0.265373 0.195673 0.292734 192 192 192 255 
3 211 213 212 6 0.174007 0.319003 0.179718 0.288792 0.195673 0.292734 192 192 192 255 
3 211 212 210 6 0.174007 0.319003 0.195673 0.292734 0.190320 0.320955 192 192 192 255 
3 240 211 210 6 0.172055 0.349679 0.174007 0.319003 0.190320 0.320955 192 192 192 255 
3 240 210 241 6 0.172055 0.349679 0.190320 0.320955 0.188477 0.349609 192 192 192 255 
3 210 212 130 6 0.190320 0.320955 0.195673 0.292734 0.212154 0.296997 192 192 192 255 
3 210 130 129 6 0.190320 0.320955 0.212154 0.296997 0.207193 0.323163 192 192 192 255 
