ply
format ascii 1.0
comment VCGLIB generated
element vertex 460
property float x
property float y
property float z
element face 916
property list uchar int vertex_indices
end_header
0.1458274 -2.628641 0.6156422 
0.1581732 -2.624063 0.613581 
0.149762 -2.623386 0.6404523 
0.1085401 -2.649371 0.3796784 
0.1642492 -2.630143 0.370413 
-0.09059417 -2.647754 0.6534086 
-0.1278737 -2.656994 0.4171578 
-0.1932831 -2.622443 0.6689762 
-0.2212478 -2.628366 0.4311736 
-0.07093817 -2.619819 0.7772996 
-0.1598199 -2.633838 0.2137972 
-0.3642148 -2.556519 0.4519365 
-0.4014465 -2.494462 0.2139044 
-0.1651281 -2.628726 0.1799699 
-0.2023663 -2.57648 -0.05781713 
-0.4386424 -2.379386 -0.02545233 
-0.239636 -2.571152 -0.294432 
-0.4758661 -2.305604 -0.2637774 
-0.2769165 -2.581726 -0.5306495 
-0.5131373 -2.302311 -0.5003414 
-0.3141699 -2.552075 -0.767872 
-0.5503559 -2.220956 -0.7388557 
-0.3513871 -2.468649 -1.006438 
-0.5568132 -2.193192 -0.7806363 
-0.5194593 -2.198364 -0.9866519 
-0.3878431 -2.204919 -1.245448 
-0.4762912 -1.733629 -1.005022 
-0.3745722 -1.737942 -1.174909 
-0.2734601 -1.740615 -1.279202 
-0.383623 -2.205042 -1.250272 
-0.1708047 -2.209063 -1.405511 
-0.1600403 -1.742482 -1.350863 
0.0746626 -1.743841 -1.398934 
0.06403816 -2.2104 -1.452695 
0.3209981 -1.825276 -1.37086 
0.315735 -2.209078 -1.393025 
0.2511406 -1.743034 -1.361888 
0.328839 -1.742128 -1.323545 
0.5670201 -2.203373 -1.157899 
0.3614241 -2.208477 -1.367704 
0.499085 -1.738126 -1.158757 
0.6319528 -1.826445 -0.9351567 
0.6105486 -2.200957 -1.060001 
0.5997882 -1.732539 -0.9324195 
0.6479545 -2.191644 -0.6862345 
0.6513275 -2.194525 -0.8014663 
0.6423163 -1.726683 -0.6969123 
0.6505375 -1.72067 -0.4559978 
0.607478 -2.185406 -0.4376445 
0.640939 -1.714574 -0.2122746 
0.5339953 -2.179016 -0.183852 
0.544438 -2.122944 0.0554668 
0.5192333 -2.176982 -0.1028637 
0.6103117 -1.708382 0.03476313 
0.5766461 -1.703044 0.2475299 
0.5629733 -2.167047 0.2960012 
0.5302358 -2.172947 0.05895084 
0.5714753 -1.702152 0.2830946 
0.5220927 -1.695873 0.5330884 
0.5740583 -2.161047 0.5364644 
0.4303071 -1.689398 0.7897657 
0.5376278 -2.154827 0.7844167 
0.4450364 -2.150308 0.9628017 
0.4223142 -1.689008 0.8051471 
0.3578579 -2.147947 1.054962 
0.2145645 -1.683399 1.024099 
0.2209654 -1.749184 1.066634 
0.2305105 -2.145767 1.138793 
-0.01541388 -1.70538 1.102828 
-0.002416939 -2.144129 1.198121 
-0.2519544 -1.901545 1.145018 
-0.2515624 -2.145047 1.154628 
-0.01772085 -1.681658 1.087498 
-0.2699668 -1.683067 1.024348 
-0.5117825 -2.149989 0.9498208 
-0.257554 -2.14511 1.15196 
-0.3988429 -1.685576 0.9204533 
-0.5308481 -2.15072 0.9200479 
-0.5241454 -1.691049 0.6979925 
-0.5628219 -1.770763 0.7060761 
-0.6000817 -1.75069 0.4690929 
-0.5837343 -1.696826 0.4651744 
-0.6175202 -2.164391 0.3705544 
-0.6171752 -1.702723 0.2282349 
-0.6006331 -2.167734 0.2371941 
-0.5521662 -2.174009 -0.01265544 
-0.6438257 -1.708651 -0.009774894 
-0.5355285 -2.180136 -0.2574882 
-0.6530874 -1.71466 -0.2505254 
-0.5617293 -2.186067 -0.4955688 
-0.6202484 -1.720863 -0.4979118 
-0.5612037 -2.192121 -0.737862 
-0.5679536 -1.727155 -0.7483646 
-0.5560044 -1.728181 -0.7891059 
-0.5499804 -1.662484 -0.7528083 
-0.3810933 -1.263082 -0.7893832 
-0.3190825 -1.264306 -0.8367066 
-0.350774 -1.556759 -1.02922 
-0.530668 -1.259301 -0.6420732 
-0.09336215 -1.267082 -0.9417266 
-0.1142757 -1.423453 -1.06984 
0.1498128 -1.267104 -0.9360861 
0.1221233 -1.437676 -1.106773 
0.08470303 -1.65628 -1.337794 
-0.1517142 -1.669096 -1.300184 
0.3958215 -1.413605 -0.908182 
0.3584404 -1.573944 -1.140658 
0.2573061 -1.266025 -0.8900053 
0.419575 -1.262934 -0.7618842 
0.1595893 -1.151164 -0.8774498 
-0.08255365 -0.8004937 -0.8867992 
0.1120662 -0.8004217 -0.8786796 
0.1626665 -0.8001937 -0.8681919 
0.1123788 -0.3354888 -0.8902953 
0.1629792 -0.3352608 -0.8798076 
0.4265059 -0.3320735 -0.7451383 
0.4261933 -0.7970063 -0.7335226 
0.4718173 -0.3310946 -0.7047384 
0.4715047 -0.7960274 -0.6931226 
0.6220772 -0.325736 -0.4862114 
0.6217645 -0.7906688 -0.4745957 
0.6769334 -0.3199376 -0.2526473 
0.6766207 -0.7848704 -0.2410316 
0.6457465 -0.3137425 -0.005521357 
0.6454338 -0.7786754 0.006094381 
0.5685455 -0.7745542 0.1689778 
0.568858 -0.3096214 0.157362 
0.5682329 -1.239487 0.1805935 
0.6451212 -1.243608 0.01771012 
0.4862212 -0.77189 0.2733992 
0.4869231 -1.236827 0.284855 
0.3607278 -1.233838 0.4010971 
0.3592716 -0.7691847 0.3782672 
0.4865339 -0.3069572 0.2617834 
0.3595842 -0.3042518 0.3666515 
0.1316658 -0.7667065 0.4713336 
0.1319784 -0.3017737 0.4597179 
-0.1094577 -0.7663604 0.4786994 
-0.1091451 -0.3014275 0.4670836 
-0.3365162 -0.3031628 0.3915094 
-0.3368288 -0.7680957 0.4031252 
-0.3633219 -1.228459 0.4187567 
-0.363185 -1.232886 0.4197549 
-0.1015727 -1.23 0.5422869 
-0.3662665 -0.7684882 0.3866209 
-0.5707996 -1.238003 0.2093589 
-0.3641715 -1.232904 0.4190013 
-0.5704695 -0.7730699 0.1977404 
-0.6719384 -1.243206 -0.001647234 
-0.6716258 -0.7782735 -0.01326297 
-0.6762031 -0.7786337 -0.02780463 
-0.6765157 -1.243567 -0.01618889 
-0.6978201 -1.247288 -0.165735 
-0.6975075 -0.7823555 -0.1773507 
-0.6959412 -0.784594 -0.2669039 
-0.6962538 -1.249527 -0.2552882 
-0.6206067 -1.255927 -0.5094218 
-0.620294 -0.790994 -0.5210375 
-0.6956286 -0.3196612 -0.2785197 
-0.6199814 -0.3260612 -0.5326532 
-0.5302445 -0.7943511 -0.6529856 
-0.529932 -0.3294183 -0.6646013 
-0.3346844 -0.3334278 -0.819831 
-0.334997 -0.7983606 -0.8082152 
-0.3142535 -0.7986612 -0.8196886 
-0.3139409 -0.3337284 -0.8313044 
-0.08224106 -0.3355609 -0.898415 
-0.08192849 0.129372 -0.9100307 
-0.3136283 0.1312045 -0.8429201 
-0.0816159 0.5943049 -0.9216464 
-0.3133157 0.5961373 -0.8545358 
0.113004 0.5943769 -0.9135268 
0.1126914 0.129444 -0.9019111 
0.1632917 0.129672 -0.8914233 
0.1636043 0.5946048 -0.9030391 
0.4271311 0.5977922 -0.7683698 
0.4268185 0.1328594 -0.756754 
0.4724425 0.5987711 -0.7279698 
0.4721299 0.1338383 -0.7163541 
0.6227024 0.6041297 -0.5094429 
0.6223898 0.1391968 -0.4978271 
0.6775585 0.6099281 -0.2758788 
0.677246 0.1449952 -0.264263 
0.6463716 0.6161231 -0.02875282 
0.646059 0.1511903 -0.01713708 
0.5691706 0.1553115 0.1457463 
0.5694833 0.6202443 0.1341306 
0.487159 0.6229085 0.2385519 
0.4868464 0.1579756 0.2501677 
0.3598967 0.160681 0.3550358 
0.3602094 0.6256138 0.34342 
0.132291 0.1631592 0.4481021 
0.1326036 0.628092 0.4364864 
-0.1088325 0.1635053 0.4554679 
-0.1085199 0.6284381 0.4438522 
-0.335891 0.6267028 0.3682779 
-0.3362036 0.16177 0.3798937 
-0.3656413 0.1613775 0.3633894 
-0.3653287 0.6263103 0.3517737 
-0.5695317 0.6217287 0.1628932 
-0.5698444 0.1567958 0.1745089 
-0.6710006 0.1515922 -0.03649445 
-0.670688 0.6165251 -0.04811019 
-0.6752653 0.6161648 -0.06265184 
-0.6755779 0.151232 -0.0510361 
-0.6968824 0.1475101 -0.2005822 
-0.6965697 0.612443 -0.2121979 
-0.6950034 0.6102045 -0.3017511 
-0.695316 0.1452717 -0.2901354 
-0.6196688 0.1388716 -0.544269 
-0.6193563 0.6038045 -0.5558847 
-0.5296193 0.1355145 -0.6762171 
-0.5293068 0.6004474 -0.6878328 
-0.3340593 0.5964379 -0.8430624 
-0.3343719 0.1315051 -0.8314467 
-0.3337467 1.061371 -0.8546782 
-0.5289942 1.06538 -0.6994485 
-0.3130032 1.06107 -0.8661516 
-0.3116136 1.250048 -0.8628631 
-0.2962426 1.526132 -0.8721558 
-0.08409712 1.523681 -0.9645722 
-0.0813033 1.059238 -0.9332622 
-0.3103768 1.526368 -0.8630981 
0.161363 1.486995 -0.9433607 
0.1133166 1.05931 -0.9251425 
0.1593404 1.523699 -0.9572665 
0.1639169 1.059538 -0.9146549 
0.1854783 1.523911 -0.9480829 
0.3607975 1.931892 -1.228247 
0.3979403 1.73782 -0.9869162 
0.1242884 1.782537 -1.187226 
0.4300304 1.528017 -0.7771837 
0.5683562 1.987081 -1.019997 
0.4052366 1.981781 -1.236497 
0.6257964 2.45175 -1.040617 
0.4874155 2.446337 -1.261016 
0.3612793 2.648815 -1.246158 
0.3986433 2.783288 -1.013036 
0.4359175 2.78486 -0.7765934 
0.6590103 2.457648 -0.8036418 
0.4731173 2.675323 -0.5373751 
0.6073953 2.463937 -0.5532961 
0.5015079 2.469057 -0.3512179 
0.236804 2.817153 -0.5036296 
0.2739529 2.632126 -0.2625252 
0.450977 2.47071 -0.2864317 
0.3049751 2.476436 -0.06115063 
0.03757447 2.677029 -0.2263581 
0.000404954 2.831423 -0.4666972 
0.1995821 2.893664 -0.7420229 
-0.03682515 2.895764 -0.7047864 
-0.2360748 2.725613 -0.4267647 
-0.2733044 2.790744 -0.6648736 
-0.07410678 2.883404 -0.9409592 
-0.3105921 2.769461 -0.9008236 
-0.1114536 2.774149 -1.174711 
-0.3479632 2.624065 -1.133673 
-0.1469496 2.443534 -1.390247 
-0.3648729 2.44754 -1.235794 
0.1249587 2.779529 -1.212135 
0.08862051 2.442312 -1.43282 
0.341143 2.443764 -1.367916 
-0.4483523 2.45065 -1.113524 
-0.3534292 1.984461 -1.149644 
-0.3824213 1.985412 -1.112349 
-0.5132024 1.992067 -0.849526 
-0.5206784 2.457035 -0.8599141 
-0.3484238 1.938865 -1.116554 
-0.3114145 1.546258 -0.8702635 
-0.5200074 1.531681 -0.6560707 
-0.5347269 1.994243 -0.7629887 
-0.5649892 1.533422 -0.5875868 
-0.5575489 1.998322 -0.6003259 
-0.6501379 1.539866 -0.3319556 
-0.5480729 2.00433 -0.3596092 
-0.6323906 1.545836 -0.09254251 
-0.4955394 2.010139 -0.125679 
-0.5211232 1.551374 0.1321303 
-0.4929173 2.016178 0.1161181 
-0.3981318 2.435665 0.09073168 
-0.4355589 2.207019 -0.1400376 
-0.3682211 2.480538 0.08489752 
-0.3039377 2.47419 -0.1674449 
-0.393357 2.481424 0.1196871 
-0.1242087 2.794253 0.2809656 
-0.161595 2.626243 0.04868138 
-0.3606842 2.694791 0.3207394 
0.1121834 2.769594 0.2442927 
0.07481655 2.630488 0.01128639 
-0.1988993 2.580136 -0.1866484 
0.3484757 2.596609 0.2113256 
0.3200628 2.478816 0.03450453 
0.3029334 2.477443 -0.02088727 
0.1495207 2.864628 0.4784001 
0.3858288 2.715183 0.4448448 
0.1867947 2.865666 0.7148559 
0.4231018 2.714624 0.6813406 
0.2239912 2.751411 0.9541922 
0.4602515 2.530714 0.922417 
0.4631192 2.501379 0.9414693 
0.2509187 2.506287 1.132204 
0.4765745 2.500848 0.9205854 
-0.01239446 2.785655 0.9906255 
0.01877996 2.50805 1.196532 
-0.2488704 2.685616 1.030414 
-0.2301116 2.507171 1.154649 
-0.04959503 2.893896 0.7514396 
-0.2860558 2.816377 0.7906654 
-0.5226429 2.551117 0.8345814 
-0.5112587 2.501205 0.9082677 
-0.3893393 2.50484 1.057067 
-0.3233297 2.815442 0.5542069 
-0.5599132 2.555503 0.59799 
-0.5231549 2.487303 0.3515279 
-0.5746511 2.491206 0.5063656 
-0.5876139 2.493652 0.603898 
-0.5602599 2.039845 0.610873 
-0.5279992 2.022392 0.3638579 
-0.5558087 2.028571 0.6104514 
-0.5132353 2.034426 0.8459517 
-0.5229742 2.058284 0.8468941 
-0.3613848 1.652742 0.3467737 
-0.3240504 1.743551 0.5809866 
-0.3208414 1.556502 0.342773 
-0.09901974 1.559704 0.4768873 
-0.08773084 1.611075 0.5470074 
-0.05039099 1.709952 0.781019 
-0.2867445 1.79207 0.8162562 
-0.013035 1.832893 1.014429 
-0.2493758 1.933897 1.049195 
0.01340771 2.04232 1.17607 
-0.2362908 2.041313 1.129071 
0.2233949 1.864467 0.9763513 
0.2453692 2.040528 1.110618 
0.4337717 2.036111 0.9388982 
-0.3471657 2.039712 1.061987 
-0.3693961 1.555436 0.2987923 
-0.3650162 1.091243 0.340158 
-0.3355784 1.091636 0.3566622 
-0.5692192 1.086662 0.1512775 
0.1393935 1.55893 0.452339 
0.1486794 1.613398 0.5096604 
0.3563774 1.554776 0.2919309 
0.3852132 1.799578 0.46772 
0.4222738 1.553076 0.225646 
0.4798386 2.017745 0.2050064 
0.5127577 2.023645 0.4420281 
0.5253767 2.029638 0.6822495 
0.4225444 1.885638 0.7020517 
0.4551251 2.035235 0.9043847 
0.4599515 2.084565 0.9335635 
0.5583736 2.49442 0.6654822 
0.5595485 1.548444 0.04395065 
0.5470333 1.737234 -0.04097471 
0.4723286 2.011729 -0.03602023 
0.5253673 2.007937 -0.1863536 
0.5989562 1.54621 -0.04441233 
0.6355416 1.53999 -0.2923891 
0.5693262 2.00523 -0.293519 
0.5817627 1.534187 -0.526123 
0.6307325 1.998896 -0.545408 
0.6778711 1.074861 -0.2874945 
0.6230149 1.069062 -0.5210586 
0.4727552 1.063704 -0.7395856 
0.45471 1.528721 -0.7483078 
0.5101745 2.353807 -0.2928607 
0.5697958 1.085177 0.1225148 
0.6466842 1.081056 -0.04036856 
0.4874716 1.087841 0.2269362 
0.3111151 2.466721 -0.02191103 
0.4196946 2.482957 0.2029196 
0.3605219 1.090547 0.3318043 
0.5262308 2.488517 0.4283381 
-0.1082073 1.093371 0.4322364 
0.1329162 1.093025 0.4248707 
-0.5457575 2.49951 0.839511 
-0.435784 2.468747 -0.3888742 
-0.6962571 1.077376 -0.2238137 
-0.6726598 1.177356 -0.07702391 
-0.6946908 1.075137 -0.3133669 
-0.6749527 1.081098 -0.07426757 
-0.6703755 1.081458 -0.05972591 
-0.4727207 2.372931 -0.3806644 
-0.6190437 1.068737 -0.5675005 
-0.5080678 2.463331 -0.6075698 
-0.5105851 2.46304 -0.6192946 
-0.5099323 2.464601 -0.6194364 
-0.5164887 2.462003 -0.6609576 
-0.1121254 1.774917 -1.149747 
0.09859857 1.979003 -1.355963 
-0.1369293 1.980232 -1.313121 
-0.6971949 -0.3174227 -0.1889665 
-0.6758904 -0.3137009 -0.03942037 
-0.6713132 -0.3133406 -0.02487871 
-0.5701569 -0.308137 0.1861247 
-0.3659539 -0.3035553 0.3750052 
0.4274437 1.062725 -0.7799855 
-0.6743517 -1.339119 -0.01415309 
-0.3262027 -1.457631 0.660964 
-0.08969821 -1.315151 0.6201153 
-0.2890145 -1.584394 0.9006127 
-0.05253997 -1.486349 0.8608742 
0.146716 -1.306883 0.5826198 
0.1378804 -1.23061 0.5243315 
0.3830112 -1.475634 0.549547 
0.6763082 -1.249803 -0.2294158 
0.6214694 -1.255602 -0.4629827 
0.4870086 -1.261033 -0.6839998 
-0.6268098 -2.161562 0.4835302 
-0.6004131 -2.243651 0.4814088 
-0.5631763 -2.297896 0.7192457 
-0.6108943 -2.155584 0.723232 
-0.3269467 -2.564235 0.688611 
-0.289619 -2.483431 0.923074 
-0.2521253 -2.155721 1.151368 
-0.01584989 -2.353858 1.11903 
-0.05327281 -2.576349 0.8881065 
0.1831512 -2.553578 0.8502486 
0.2205867 -2.312292 1.080702 
0.4196681 -2.392469 0.8089346 
0.4201492 -1.67692 0.7910575 
0.382325 -2.496162 0.5750434 
0.3450328 -2.524237 0.3392632 
0.3077646 -2.516713 0.1025935 
0.2704906 -2.517709 -0.1338633 
0.5070899 -2.234138 -0.1782369 
0.469687 -2.426856 -0.4099038 
0.2331567 -2.607646 -0.3680981 
0.4323482 -2.524216 -0.6439531 
0.1958531 -2.652637 -0.6034557 
0.05920738 -2.647812 -0.3396617 
0.1876256 -2.654456 -0.6021128 
-0.003279179 -2.64826 -0.3297945 
-0.04056916 -2.67295 -0.5656594 
-0.002638906 -2.647424 -0.3257566 
-0.008510768 -2.6475 -0.3289882 
-0.07447231 -2.658753 -0.7811741 
-0.1191441 -2.653041 -0.5537609 
0.03401694 -2.614358 -0.09415975 
0.07513919 -2.635783 0.1422479 
0.6430645 -2.197673 -0.9276741 
0.3950558 -2.55247 -0.879729 
0.631682 -2.229116 -0.9250965 
0.3578137 -2.50601 -1.117371 
0.3206927 -2.279366 -1.359516 
-0.1522276 -2.432561 -1.28111 
-0.1150659 -2.598676 -1.040478 
-0.07783136 -2.656377 -0.8025551 
0.06991097 -2.635981 0.1342035 
-0.1353805 -2.634813 0.1754292 
0.07127509 -2.636975 0.142887 
0.1838547 -1.507186 0.8241059 
0.1860329 1.732603 0.7431641 
-0.08686933 2.892452 0.5149939 
0.1585781 -2.65526 -0.8398719 
0.1213361 -2.608568 -1.07752 
0.08417052 -2.448244 -1.318007 
0.6320965 1.992838 -0.7878333 
0.3538148 1.980879 -1.273982 
0.1623043 2.886935 -0.9783365 
3 0 1 2 
3 1 0 3 
3 1 3 4 
3 3 0 5 
3 3 5 6 
3 6 5 7 
3 6 7 8 
3 7 5 9 
3 6 8 10 
3 11 12 13 
3 11 13 10 
3 8 11 10 
3 14 13 12 
3 14 12 15 
3 16 14 15 
3 16 15 17 
3 18 16 17 
3 18 17 19 
3 20 18 19 
3 20 19 21 
3 22 20 21 
3 22 21 23 
3 24 22 23 
3 22 24 25 
3 25 24 26 
3 25 26 27 
3 28 29 25 
3 28 25 27 
3 30 29 28 
3 30 28 31 
3 32 33 30 
3 32 30 31 
3 34 35 33 
3 34 33 32 
3 36 34 32 
3 34 36 37 
3 38 39 34 
3 38 34 37 
3 40 38 37 
3 41 42 38 
3 41 38 40 
3 43 41 40 
3 44 45 41 
3 44 41 43 
3 46 44 43 
3 47 48 44 
3 47 44 46 
3 49 50 48 
3 49 48 47 
3 51 52 50 
3 51 50 49 
3 53 51 49 
3 51 53 54 
3 55 56 51 
3 55 51 54 
3 57 55 54 
3 58 59 55 
3 58 55 57 
3 60 61 59 
3 60 59 58 
3 62 61 60 
3 62 60 63 
3 64 62 63 
3 64 63 65 
3 66 64 65 
3 64 66 67 
3 67 66 68 
3 67 68 69 
3 69 68 70 
3 69 70 71 
3 70 68 72 
3 70 72 73 
3 74 75 70 
3 74 70 73 
3 76 74 73 
3 77 74 76 
3 77 76 78 
3 79 77 78 
3 80 79 78 
3 80 78 81 
3 82 80 81 
3 82 81 83 
3 84 82 83 
3 85 84 83 
3 85 83 86 
3 87 85 86 
3 87 86 88 
3 89 87 88 
3 89 88 90 
3 91 89 90 
3 91 90 92 
3 23 91 92 
3 23 92 93 
3 92 94 93 
3 93 94 95 
3 93 95 96 
3 97 26 93 
3 97 93 96 
3 95 94 98 
3 99 100 97 
3 99 97 96 
3 101 102 100 
3 101 100 99 
3 100 102 103 
3 100 103 104 
3 105 106 102 
3 105 102 101 
3 107 105 101 
3 105 107 108 
3 109 107 101 
3 109 101 99 
3 109 99 110 
3 111 109 110 
3 109 111 112 
3 112 111 113 
3 112 113 114 
3 115 116 112 
3 115 112 114 
3 117 118 116 
3 117 116 115 
3 119 120 118 
3 119 118 117 
3 121 122 120 
3 121 120 119 
3 123 124 122 
3 123 122 121 
3 125 124 123 
3 125 123 126 
3 127 128 124 
3 127 124 125 
3 129 130 127 
3 129 127 125 
3 131 130 129 
3 131 129 132 
3 132 129 133 
3 132 133 134 
3 135 132 134 
3 135 134 136 
3 137 135 136 
3 137 136 138 
3 139 140 137 
3 139 137 138 
3 141 142 143 
3 141 143 137 
3 140 141 137 
3 141 140 144 
3 145 146 141 
3 145 141 144 
3 147 145 144 
3 148 145 147 
3 148 147 149 
3 150 151 148 
3 150 148 149 
3 152 151 150 
3 152 150 153 
3 154 155 152 
3 154 152 153 
3 156 155 154 
3 156 154 157 
3 157 154 158 
3 157 158 159 
3 160 157 159 
3 160 159 161 
3 162 163 160 
3 162 160 161 
3 164 163 162 
3 164 162 165 
3 166 110 164 
3 166 164 165 
3 167 166 165 
3 167 165 168 
3 169 167 168 
3 169 168 170 
3 171 172 167 
3 171 167 169 
3 173 172 171 
3 173 171 174 
3 175 176 173 
3 175 173 174 
3 177 178 176 
3 177 176 175 
3 179 180 178 
3 179 178 177 
3 181 182 180 
3 181 180 179 
3 183 184 182 
3 183 182 181 
3 185 184 183 
3 185 183 186 
3 187 188 185 
3 187 185 186 
3 189 188 187 
3 189 187 190 
3 191 189 190 
3 191 190 192 
3 193 191 192 
3 193 192 194 
3 195 196 193 
3 195 193 194 
3 197 196 195 
3 197 195 198 
3 199 200 197 
3 199 197 198 
3 201 200 199 
3 201 199 202 
3 203 204 201 
3 203 201 202 
3 205 204 203 
3 205 203 206 
3 207 208 205 
3 207 205 206 
3 209 208 207 
3 209 207 210 
3 211 209 210 
3 211 210 212 
3 213 214 211 
3 213 211 212 
3 215 213 212 
3 215 212 216 
3 170 213 215 
3 170 215 217 
3 215 218 217 
3 217 218 219 
3 217 219 220 
3 221 217 220 
3 219 218 222 
3 223 224 221 
3 223 221 220 
3 225 223 220 
3 224 223 226 
3 227 223 225 
3 228 229 227 
3 228 227 225 
3 230 228 225 
3 227 229 231 
3 232 229 228 
3 232 228 233 
3 234 232 233 
3 234 233 235 
3 236 237 234 
3 236 234 235 
3 237 238 239 
3 237 239 234 
3 238 240 241 
3 238 241 239 
3 241 240 242 
3 243 244 245 
3 243 245 242 
3 240 243 242 
3 245 244 246 
3 247 244 243 
3 247 243 248 
3 248 243 249 
3 248 249 250 
3 251 248 250 
3 251 250 252 
3 252 250 253 
3 252 253 254 
3 254 253 255 
3 254 255 256 
3 256 255 257 
3 256 257 258 
3 255 259 260 
3 255 260 257 
3 259 236 261 
3 259 261 260 
3 262 256 258 
3 263 264 262 
3 263 262 258 
3 264 265 266 
3 264 266 262 
3 267 268 265 
3 267 265 264 
3 268 222 269 
3 268 269 270 
3 265 268 270 
3 269 271 272 
3 269 272 270 
3 271 273 274 
3 271 274 272 
3 273 275 276 
3 273 276 274 
3 275 277 278 
3 275 278 276 
3 278 279 280 
3 278 280 276 
3 280 279 281 
3 280 281 282 
3 281 279 283 
3 284 285 281 
3 284 281 283 
3 286 284 283 
3 284 287 288 
3 284 288 285 
3 285 288 247 
3 285 247 289 
3 288 287 290 
3 288 290 291 
3 292 288 291 
3 293 294 290 
3 293 290 287 
3 295 296 294 
3 295 294 293 
3 297 298 296 
3 297 296 295 
3 299 298 297 
3 299 297 300 
3 301 298 299 
3 300 297 302 
3 300 302 303 
3 303 302 304 
3 303 304 305 
3 304 302 306 
3 304 306 307 
3 304 307 308 
3 304 308 309 
3 310 304 309 
3 308 307 311 
3 308 311 312 
3 311 286 313 
3 311 313 314 
3 312 311 314 
3 315 312 314 
3 316 315 314 
3 317 318 316 
3 317 316 314 
3 313 317 314 
3 319 320 316 
3 319 316 318 
3 321 322 318 
3 321 318 317 
3 322 321 323 
3 322 323 324 
3 325 322 324 
3 325 326 327 
3 325 327 322 
3 326 328 329 
3 326 329 327 
3 329 328 330 
3 329 330 331 
3 328 332 333 
3 328 333 330 
3 332 334 333 
3 335 329 331 
3 310 335 331 
3 310 331 305 
3 323 321 336 
3 337 338 323 
3 337 323 336 
3 277 339 337 
3 277 337 336 
3 340 341 325 
3 340 325 324 
3 342 343 341 
3 342 341 340 
3 343 342 344 
3 343 344 345 
3 346 343 345 
3 347 348 343 
3 347 343 346 
3 348 347 349 
3 350 349 347 
3 350 347 351 
3 301 350 351 
3 350 334 349 
3 344 352 353 
3 344 353 354 
3 345 344 354 
3 354 353 355 
3 356 357 358 
3 356 358 355 
3 353 356 355 
3 358 357 359 
3 358 359 360 
3 357 361 362 
3 357 362 359 
3 359 362 363 
3 359 363 364 
3 358 365 355 
3 356 353 352 
3 366 367 356 
3 366 356 352 
3 344 368 366 
3 344 366 352 
3 345 354 369 
3 345 369 291 
3 370 345 291 
3 371 368 344 
3 371 344 342 
3 372 346 345 
3 372 345 370 
3 373 374 340 
3 373 340 324 
3 323 338 373 
3 323 373 324 
3 375 308 312 
3 375 312 315 
3 308 375 309 
3 375 320 309 
3 304 310 305 
3 331 330 303 
3 331 303 305 
3 334 350 299 
3 334 299 300 
3 333 334 300 
3 296 298 301 
3 296 301 351 
3 302 297 295 
3 302 295 306 
3 294 296 351 
3 294 351 372 
3 290 294 372 
3 290 372 370 
3 290 370 291 
3 313 286 283 
3 281 285 289 
3 281 289 282 
3 282 289 251 
3 282 251 376 
3 377 378 275 
3 377 275 273 
3 379 377 273 
3 380 378 377 
3 378 380 381 
3 276 280 382 
3 276 382 274 
3 383 379 273 
3 383 273 271 
3 272 274 382 
3 272 382 384 
3 385 272 384 
3 382 376 384 
3 386 385 384 
3 385 386 387 
3 270 272 385 
3 270 385 387 
3 267 264 263 
3 266 254 256 
3 266 256 262 
3 252 254 266 
3 252 266 387 
3 386 252 387 
3 251 252 386 
3 251 386 384 
3 376 251 384 
3 289 247 248 
3 289 248 251 
3 245 365 242 
3 358 360 241 
3 358 241 242 
3 365 358 242 
3 243 240 238 
3 243 238 249 
3 236 235 261 
3 388 230 225 
3 388 225 220 
3 389 230 388 
3 389 388 390 
3 268 267 388 
3 268 388 220 
3 219 268 220 
3 218 215 216 
3 218 216 269 
3 222 218 269 
3 212 210 383 
3 212 383 216 
3 210 207 379 
3 210 379 383 
3 208 158 391 
3 208 391 205 
3 379 207 206 
3 379 206 377 
3 391 392 204 
3 391 204 205 
3 206 203 380 
3 206 380 377 
3 380 203 202 
3 380 202 381 
3 393 394 200 
3 393 200 201 
3 202 199 339 
3 202 339 381 
3 200 394 395 
3 200 395 197 
3 339 199 198 
3 339 198 337 
3 338 195 194 
3 338 194 373 
3 194 192 374 
3 194 374 373 
3 192 190 371 
3 192 371 374 
3 190 187 368 
3 190 368 371 
3 186 183 367 
3 186 367 366 
3 367 183 181 
3 367 181 361 
3 361 181 179 
3 361 179 362 
3 362 179 177 
3 362 177 363 
3 363 177 175 
3 363 175 396 
3 396 175 174 
3 396 174 226 
3 174 171 224 
3 174 224 226 
3 224 171 169 
3 224 169 221 
3 168 214 213 
3 168 213 170 
3 221 169 170 
3 221 170 217 
3 165 162 214 
3 165 214 168 
3 214 162 161 
3 214 161 211 
3 159 158 208 
3 159 208 209 
3 158 154 153 
3 158 153 391 
3 397 151 152 
3 153 150 392 
3 153 392 391 
3 392 150 149 
3 392 149 393 
3 149 147 394 
3 149 394 393 
3 394 147 144 
3 394 144 395 
3 141 146 142 
3 398 399 143 
3 398 143 142 
3 400 401 399 
3 400 399 398 
3 399 402 403 
3 399 403 143 
3 402 404 131 
3 402 131 403 
3 196 139 138 
3 196 138 193 
3 143 403 135 
3 143 135 137 
3 138 136 191 
3 138 191 193 
3 134 133 188 
3 134 188 189 
3 126 123 184 
3 126 184 185 
3 122 405 406 
3 122 406 120 
3 182 121 119 
3 182 119 180 
3 120 406 407 
3 120 407 118 
3 180 119 117 
3 180 117 178 
3 176 115 114 
3 176 114 173 
3 114 113 172 
3 114 172 173 
3 113 111 110 
3 113 110 166 
3 110 99 96 
3 110 96 164 
3 96 95 163 
3 96 163 164 
3 92 90 156 
3 92 156 98 
3 94 92 98 
3 90 88 155 
3 90 155 156 
3 88 86 397 
3 88 397 152 
3 155 88 152 
3 86 83 145 
3 86 145 148 
3 397 86 148 
3 408 80 82 
3 409 408 82 
3 409 410 411 
3 409 411 408 
3 11 412 410 
3 11 410 409 
3 411 79 80 
3 411 80 408 
3 81 78 398 
3 81 398 142 
3 146 81 142 
3 79 411 77 
3 412 413 74 
3 412 74 77 
3 410 412 77 
3 72 401 400 
3 72 400 73 
3 70 75 71 
3 75 414 71 
3 414 415 69 
3 414 69 71 
3 416 415 414 
3 416 414 413 
3 417 418 415 
3 417 415 416 
3 418 64 67 
3 68 66 65 
3 68 65 72 
3 419 61 62 
3 60 420 63 
3 404 420 60 
3 404 60 58 
3 59 421 422 
3 59 422 55 
3 58 57 130 
3 58 130 131 
3 404 58 131 
3 55 422 423 
3 55 423 56 
3 423 424 425 
3 423 425 52 
3 56 423 52 
3 426 425 424 
3 426 424 427 
3 428 426 427 
3 428 427 429 
3 429 427 430 
3 429 430 431 
3 430 432 433 
3 430 433 431 
3 432 430 434 
3 435 432 434 
3 431 433 436 
3 433 437 436 
3 427 424 438 
3 427 438 434 
3 430 427 434 
3 423 422 4 
3 423 4 439 
3 130 57 54 
3 130 54 127 
3 54 53 128 
3 54 128 127 
3 51 56 52 
3 425 50 52 
3 128 53 49 
3 128 49 405 
3 405 49 47 
3 405 47 406 
3 440 41 45 
3 428 441 442 
3 428 442 45 
3 44 428 45 
3 41 440 42 
3 440 442 42 
3 441 443 38 
3 441 38 42 
3 442 441 42 
3 106 105 43 
3 106 43 40 
3 34 39 35 
3 39 444 35 
3 103 36 32 
3 104 103 32 
3 104 32 31 
3 445 29 30 
3 28 104 31 
3 26 97 27 
3 446 447 20 
3 446 20 22 
3 21 91 23 
3 26 24 23 
3 26 23 93 
3 18 20 447 
3 18 447 436 
3 437 18 436 
3 435 16 18 
3 435 18 437 
3 19 17 87 
3 19 87 89 
3 14 16 435 
3 14 435 434 
3 438 14 434 
3 17 15 85 
3 17 85 87 
3 13 14 438 
3 13 438 448 
3 449 13 448 
3 450 449 448 
3 439 450 448 
3 13 449 10 
3 422 421 1 
3 422 1 4 
3 421 419 417 
3 421 417 2 
3 1 421 2 
3 4 3 450 
3 4 450 439 
3 2 417 416 
3 2 416 9 
3 5 0 2 
3 5 2 9 
3 450 3 6 
3 450 6 10 
3 449 450 10 
3 413 412 7 
3 413 7 9 
3 416 413 9 
3 7 412 11 
3 7 11 8 
3 418 417 419 
3 418 419 62 
3 64 418 62 
3 61 419 421 
3 61 421 59 
3 50 425 426 
3 50 426 48 
3 415 418 67 
3 415 67 69 
3 413 414 75 
3 413 75 74 
3 411 410 77 
3 12 11 409 
3 12 409 82 
3 84 12 82 
3 63 420 451 
3 63 451 65 
3 451 420 404 
3 451 404 402 
3 65 451 401 
3 65 401 72 
3 401 451 402 
3 401 402 399 
3 400 76 73 
3 76 400 398 
3 76 398 78 
3 83 81 146 
3 83 146 145 
3 332 452 348 
3 332 348 349 
3 334 332 349 
3 343 348 452 
3 343 452 341 
3 452 332 328 
3 452 328 326 
3 341 452 326 
3 341 326 325 
3 327 329 335 
3 327 335 319 
3 322 327 319 
3 322 319 318 
3 336 321 317 
3 336 317 278 
3 277 336 278 
3 350 301 299 
3 351 347 346 
3 351 346 372 
3 369 292 291 
3 292 369 246 
3 330 333 300 
3 330 300 303 
3 319 335 310 
3 319 310 309 
3 320 319 309 
3 316 320 375 
3 316 375 315 
3 278 317 313 
3 278 313 283 
3 279 278 283 
3 306 295 293 
3 306 293 453 
3 453 293 287 
3 453 287 284 
3 307 306 453 
3 307 453 311 
3 311 453 284 
3 311 284 286 
3 441 428 429 
3 441 429 454 
3 443 441 454 
3 443 454 455 
3 444 443 455 
3 444 455 456 
3 456 455 446 
3 456 446 445 
3 433 432 435 
3 433 435 437 
3 454 429 431 
3 454 431 436 
3 447 454 436 
3 455 454 447 
3 455 447 446 
3 48 426 428 
3 48 428 44 
3 442 440 45 
3 38 443 444 
3 38 444 39 
3 35 444 456 
3 35 456 33 
3 15 12 84 
3 15 84 85 
3 21 19 89 
3 21 89 91 
3 445 446 22 
3 445 22 25 
3 29 445 25 
3 406 47 46 
3 406 46 407 
3 46 43 105 
3 46 105 108 
3 407 46 108 
3 106 40 37 
3 108 107 109 
3 108 109 112 
3 116 108 112 
3 103 102 106 
3 103 106 37 
3 36 103 37 
3 163 95 98 
3 163 98 160 
3 100 104 28 
3 100 28 27 
3 97 100 27 
3 133 129 125 
3 133 125 126 
3 124 128 405 
3 124 405 122 
3 118 407 108 
3 118 108 116 
3 403 131 132 
3 403 132 135 
3 424 423 439 
3 424 439 448 
3 438 424 448 
3 33 456 445 
3 33 445 30 
3 144 140 139 
3 144 139 395 
3 151 397 148 
3 98 156 157 
3 98 157 160 
3 188 133 126 
3 188 126 185 
3 184 123 121 
3 184 121 182 
3 178 117 115 
3 178 115 176 
3 136 134 189 
3 136 189 191 
3 172 113 166 
3 172 166 167 
3 395 139 196 
3 395 196 197 
3 204 392 393 
3 204 393 201 
3 161 159 209 
3 161 209 211 
3 368 187 186 
3 368 186 366 
3 356 367 361 
3 356 361 357 
3 364 363 396 
3 364 396 231 
3 374 371 342 
3 374 342 340 
3 247 288 292 
3 247 292 246 
3 244 247 246 
3 260 389 390 
3 260 390 257 
3 198 195 338 
3 198 338 337 
3 381 339 277 
3 381 277 275 
3 378 381 275 
3 216 383 271 
3 216 271 269 
3 360 359 364 
3 360 364 457 
3 364 231 229 
3 364 229 232 
3 457 364 232 
3 233 228 458 
3 226 223 227 
3 226 227 231 
3 396 226 231 
3 458 228 230 
3 458 230 389 
3 268 219 222 
3 390 388 267 
3 390 267 263 
3 241 360 457 
3 241 457 239 
3 239 457 232 
3 239 232 234 
3 235 233 458 
3 235 458 261 
3 355 365 245 
3 355 245 246 
3 369 354 355 
3 369 355 246 
3 261 458 389 
3 261 389 260 
3 382 280 282 
3 382 282 376 
3 266 265 270 
3 266 270 387 
3 257 390 263 
3 257 263 258 
3 249 238 237 
3 249 237 459 
3 459 237 236 
3 459 236 259 
3 250 249 459 
3 250 459 253 
3 253 459 259 
3 253 259 255 
